<?xml version="1.0" encoding="utf-8"?>
<!-- Generator: Adobe Illustrator 19.0.0, SVG Export Plug-In . SVG Version: 6.00 Build 0)  -->
<svg version="1.1" id="Layer_1" xmlns="http://www.w3.org/2000/svg" xmlns:xlink="http://www.w3.org/1999/xlink" x="0px" y="0px"
	 width="309px" height="72.4px" viewBox="0 0 309 72.4" style="enable-background:new 0 0 309 72.4;" xml:space="preserve">
<style type="text/css">
	.st0{fill:#FF0000;}
	.st1{fill:none;stroke:#000000;stroke-width:0.216;stroke-miterlimit:2.613;}
	.st2{fill-rule:evenodd;clip-rule:evenodd;fill:#FFFFFF;}
	.st3{fill:none;stroke:#000000;stroke-width:0.552;stroke-miterlimit:2.613;}
	.st4{fill-rule:evenodd;clip-rule:evenodd;}
	.st5{fill-rule:evenodd;clip-rule:evenodd;fill:#D8151F;}
</style>
<g id="XMLID_27_">
	<path id="XMLID_28_" class="st0" d="M21.9,64.3l-1.5,3.3h-2.9l6.2-12.8h3.5l1.5,12.8h-2.9l-0.3-3.3H21.9z M25.5,62.2l-0.2-2.8
		c-0.1-0.7-0.1-1.7-0.2-2.5h0c-0.3,0.8-0.7,1.8-1,2.5l-1.3,2.8H25.5z"/>
	<path id="XMLID_31_" class="st0" d="M42.7,67.6l0.8-5.3c0.2-1.4,0.5-3.2,0.9-5h-0.1c-0.7,1.7-1.5,3.4-2.2,4.8l-2.6,5.2h-2.1
		l-0.5-5.2c-0.1-1.4-0.2-3.2-0.3-4.9h0c-0.4,1.7-0.7,3.6-1.1,5l-1.3,5.3h-2.5l3.2-12.8h3.7l0.4,4.9c0.1,1.2,0.2,2.7,0.2,4.1h0.1
		c0.5-1.4,1.2-2.9,1.7-4.1l2.4-4.9h3.7l-1.7,12.8H42.7z"/>
	<path id="XMLID_33_" class="st0" d="M57.8,62.2h-4.6l-0.6,3.1h5.1l-0.4,2.3h-7.8l2.4-12.8h7.6l-0.5,2.3h-4.8l-0.5,2.7h4.6
		L57.8,62.2z"/>
	<path id="XMLID_35_" class="st0" d="M63.6,55.1c0.9-0.2,2.1-0.3,3.4-0.3c1.2,0,2.5,0.2,3.4,0.7c0.8,0.5,1.4,1.3,1.4,2.5
		c0,1.9-1.3,3.1-2.9,3.6v0.1c0.8,0.3,1.1,1.2,1.2,2.3c0.2,1.4,0.3,3.1,0.5,3.6h-2.8c-0.1-0.3-0.2-1.4-0.4-3c-0.1-1.6-0.6-2-1.7-2
		h-0.8l-1,5.1h-2.7L63.6,55.1z M65.3,60.5h1.1c1.5,0,2.6-0.9,2.6-2.1c0-1-0.9-1.5-2-1.5c-0.5,0-0.8,0-1.1,0.1L65.3,60.5z"/>
	<path id="XMLID_38_" class="st0" d="M79.3,54.8l-2.4,12.8h-2.7l2.4-12.8H79.3z"/>
	<path id="XMLID_40_" class="st0" d="M90.9,67.3c-0.7,0.3-1.8,0.6-3.4,0.6c-3.4,0-5.7-2.1-5.7-5.4c0-2.9,1.3-5.1,3.2-6.4
		c1.3-0.9,2.9-1.4,4.7-1.4c1.4,0,2.4,0.3,2.8,0.6l-0.7,2.2c-0.4-0.2-1.2-0.4-2.3-0.4c-1.1,0-2.1,0.3-2.9,1c-1.1,0.9-1.8,2.3-1.8,4.1
		c0,2,1.1,3.4,3.4,3.4c0.9,0,1.8-0.2,2.4-0.4L90.9,67.3z"/>
	<path id="XMLID_42_" class="st0" d="M97.9,64.3l-1.5,3.3h-2.9l6.2-12.8h3.5l1.5,12.8h-2.9l-0.3-3.3H97.9z M101.5,62.2l-0.2-2.8
		c-0.1-0.7-0.1-1.7-0.2-2.5h0c-0.3,0.8-0.7,1.8-1,2.5l-1.3,2.8H101.5z"/>
	<path id="XMLID_45_" class="st0" d="M112.4,54.6c-0.9,1.9-1.9,3.7-3,5.1l-1.8,0.2c0.8-1.6,1.6-3.5,2.1-5.1L112.4,54.6z"/>
	<path id="XMLID_47_" class="st0" d="M114.1,64.7c0.8,0.5,1.8,0.8,3,0.8c1.1,0,2-0.5,2-1.5c0-0.7-0.6-1.2-1.7-1.8
		c-1.4-0.7-2.7-1.7-2.7-3.4c0-2.6,2.3-4.2,5.1-4.2c1.6,0,2.5,0.3,3,0.6l-0.9,2.3c-0.4-0.2-1.3-0.6-2.4-0.6c-1.3,0-1.9,0.6-1.9,1.3
		c0,0.7,0.8,1.2,1.9,1.8c1.6,0.8,2.5,1.9,2.5,3.4c0,2.8-2.4,4.3-5.2,4.3c-1.8,0-3.1-0.5-3.7-0.9L114.1,64.7z"/>
	<path id="XMLID_49_" class="st0" d="M131.1,64.7c0.8,0.5,1.8,0.8,3,0.8c1.1,0,2-0.5,2-1.5c0-0.7-0.6-1.2-1.7-1.8
		c-1.4-0.7-2.7-1.7-2.7-3.4c0-2.6,2.3-4.2,5.1-4.2c1.6,0,2.5,0.3,3,0.6l-0.9,2.3c-0.4-0.2-1.3-0.6-2.4-0.6c-1.3,0-1.9,0.6-1.9,1.3
		c0,0.7,0.8,1.2,1.9,1.8c1.6,0.8,2.5,1.9,2.5,3.4c0,2.8-2.4,4.3-5.2,4.3c-1.8,0-3.1-0.5-3.7-0.9L131.1,64.7z"/>
	<path id="XMLID_51_" class="st0" d="M154.7,59.9c0,2.3-0.8,4.6-2.3,6c-1.2,1.2-2.8,1.8-4.7,1.8c-3.3,0-5.2-2.4-5.2-5.3
		c0-2.3,0.9-4.6,2.4-6.1c1.2-1.1,2.8-1.8,4.7-1.8C153,54.6,154.7,56.9,154.7,59.9z M147.1,57.9c-1,1-1.6,3-1.6,4.5
		c0,1.8,0.8,3.2,2.7,3.2c0.8,0,1.6-0.4,2.1-0.9c1-1,1.6-3.1,1.6-4.6c0-1.6-0.6-3.1-2.6-3.1C148.4,56.9,147.6,57.2,147.1,57.9z"/>
	<path id="XMLID_54_" class="st0" d="M166.9,67.3c-0.7,0.3-1.8,0.6-3.4,0.6c-3.4,0-5.7-2.1-5.7-5.4c0-2.9,1.3-5.1,3.2-6.4
		c1.3-0.9,2.9-1.4,4.7-1.4c1.4,0,2.4,0.3,2.8,0.6l-0.7,2.2c-0.4-0.2-1.2-0.4-2.3-0.4s-2.1,0.3-2.9,1c-1.1,0.9-1.8,2.3-1.8,4.1
		c0,2,1.1,3.4,3.4,3.4c0.9,0,1.8-0.2,2.4-0.4L166.9,67.3z"/>
	<path id="XMLID_56_" class="st0" d="M179.4,67.3c-0.7,0.3-1.8,0.6-3.4,0.6c-3.4,0-5.7-2.1-5.7-5.4c0-2.9,1.3-5.1,3.2-6.4
		c1.3-0.9,2.9-1.4,4.7-1.4c1.4,0,2.4,0.3,2.8,0.6l-0.7,2.2c-0.4-0.2-1.2-0.4-2.3-0.4c-1.1,0-2.1,0.3-2.9,1c-1.1,0.9-1.8,2.3-1.8,4.1
		c0,2,1.1,3.4,3.4,3.4c0.9,0,1.8-0.2,2.4-0.4L179.4,67.3z"/>
	<path id="XMLID_58_" class="st0" d="M191.1,62.2h-4.6l-0.6,3.1h5.1l-0.4,2.3h-7.8l2.4-12.8h7.6l-0.5,2.3h-4.8l-0.5,2.7h4.6
		L191.1,62.2z"/>
	<path id="XMLID_60_" class="st0" d="M196.9,55.1c0.9-0.2,2.1-0.3,3.4-0.3c1.2,0,2.5,0.2,3.4,0.7c0.8,0.5,1.4,1.3,1.4,2.5
		c0,1.9-1.3,3.1-2.9,3.6v0.1c0.8,0.3,1.1,1.2,1.2,2.3c0.2,1.4,0.3,3.1,0.5,3.6h-2.8c-0.1-0.3-0.2-1.4-0.4-3c-0.1-1.6-0.6-2-1.7-2
		h-0.8l-0.9,5.1h-2.7L196.9,55.1z M198.6,60.5h1.1c1.5,0,2.6-0.9,2.6-2.1c0-1-0.9-1.5-2-1.5c-0.5,0-0.8,0-1.1,0.1L198.6,60.5z"/>
	<path id="XMLID_63_" class="st0" d="M213.4,64.7c0.8,0.5,1.8,0.8,3,0.8c1.1,0,2-0.5,2-1.5c0-0.7-0.6-1.2-1.7-1.8
		c-1.4-0.7-2.7-1.7-2.7-3.4c0-2.6,2.3-4.2,5.1-4.2c1.6,0,2.5,0.3,3,0.6l-0.9,2.3c-0.4-0.2-1.3-0.6-2.4-0.6c-1.3,0-1.9,0.6-1.9,1.3
		c0,0.7,0.8,1.2,1.9,1.8c1.6,0.8,2.5,1.9,2.5,3.4c0,2.8-2.4,4.3-5.2,4.3c-1.8,0-3.1-0.5-3.7-0.9L213.4,64.7z"/>
	<path id="XMLID_65_" class="st0" d="M228.8,57.2h-3.4l0.5-2.4h9.5l-0.5,2.4h-3.4l-2,10.4h-2.7L228.8,57.2z"/>
	<path id="XMLID_67_" class="st0" d="M248.8,59.9c0,2.3-0.8,4.6-2.3,6c-1.2,1.2-2.8,1.8-4.7,1.8c-3.3,0-5.2-2.4-5.2-5.3
		c0-2.3,0.9-4.6,2.4-6.1c1.2-1.1,2.8-1.8,4.7-1.8C247,54.6,248.8,56.9,248.8,59.9z M241.1,57.9c-1,1-1.6,3-1.6,4.5
		c0,1.8,0.8,3.2,2.7,3.2c0.8,0,1.6-0.4,2.1-0.9c1-1,1.6-3.1,1.6-4.6c0-1.6-0.6-3.1-2.6-3.1C242.5,56.9,241.7,57.2,241.1,57.9z"/>
	<path id="XMLID_70_" class="st0" d="M253.8,55.1c0.9-0.2,2.1-0.3,3.4-0.3c1.2,0,2.5,0.2,3.4,0.7c0.8,0.5,1.4,1.3,1.4,2.5
		c0,1.9-1.3,3.1-2.9,3.6v0.1c0.8,0.3,1.1,1.2,1.2,2.3c0.2,1.4,0.3,3.1,0.5,3.6H258c-0.1-0.3-0.2-1.4-0.4-3c-0.1-1.6-0.6-2-1.7-2H255
		l-0.9,5.1h-2.7L253.8,55.1z M255.4,60.5h1.1c1.5,0,2.6-0.9,2.6-2.1c0-1-0.9-1.5-2-1.5c-0.5,0-0.8,0-1.1,0.1L255.4,60.5z"/>
	<path id="XMLID_73_" class="st0" d="M272.6,62.2h-4.6l-0.6,3.1h5.1l-0.4,2.3h-7.8l2.4-12.8h7.6l-0.5,2.3H269l-0.5,2.7h4.6
		L272.6,62.2z"/>
</g>
<path d="M144.8,42.5h8.3V18.8h-8.3V42.5z M167.3,47.4l7-4.8c-3.8-4.1-6.9-8.7-9.3-13.7c2.7-1.3,4.6-3.2,5.9-5.9
	c1.1-2.5,1.2-5.1,0.2-7.7c-0.9-2.1-2.5-3.5-4.7-4.2c-1.4-0.4-2.8-0.5-4.2-0.5H147l-2.1,7.2h15.1c0.6,0,1.2,0.2,1.6,0.6
	c1,1.1,1,2.2,0.2,3.4c-2,2.2-4.2,4-6.6,5.7c0.9,2.5,2,4.9,3.4,7.3C161,39.2,163.9,43.5,167.3,47.4"/>
<path class="st1" d="M144.8,42.5h8.3V18.8h-8.3V42.5z M167.3,47.4l7-4.8c-3.8-4.1-6.9-8.7-9.3-13.7c2.7-1.3,4.6-3.2,5.9-5.9
	c1.1-2.5,1.2-5.1,0.2-7.7c-0.9-2.1-2.5-3.5-4.7-4.2c-1.4-0.4-2.8-0.5-4.2-0.5H147l-2.1,7.2h15.1c0.6,0,1.2,0.2,1.6,0.6
	c1,1.1,1,2.2,0.2,3.4c-2,2.2-4.2,4-6.6,5.7c0.9,2.5,2,4.9,3.4,7.3C161,39.2,163.9,43.5,167.3,47.4z"/>
<path d="M3,42.5h12.6c1.8,0,3.6-0.2,5.3-0.6c4.4-1.4,6.6-4.4,6.6-9c-0.3-3.4-1.6-6.3-3.9-8.7c-3.5-3.5-6.8-7.2-9.9-11
	c-0.4-0.4-0.6-0.9-0.8-1.5c-0.1-0.2-0.1-0.3-0.1-0.5c0.1-0.9,0.6-1.4,1.5-1.5H26l-2.5-9.5H12.8c-1.8,0-3.5,0.2-5.2,0.5
	C3.6,1.6,1.2,4,0.3,8c-0.6,3.6,0.3,6.8,2.6,9.6C6,21.4,9.3,25,12.7,28.4c0.6,0.6,1,1.2,1.5,1.9c0.2,0.3,0.3,0.6,0.3,0.9
	c-0.1,1.1-0.7,1.7-1.7,1.8H0.2L3,42.5z"/>
<path class="st1" d="M3,42.5h12.6c1.8,0,3.6-0.2,5.3-0.6c4.4-1.4,6.6-4.4,6.6-9c-0.3-3.4-1.6-6.3-3.9-8.7c-3.5-3.5-6.8-7.2-9.9-11
	c-0.4-0.4-0.6-0.9-0.8-1.5c-0.1-0.2-0.1-0.3-0.1-0.5c0.1-0.9,0.6-1.4,1.5-1.5H26l-2.5-9.5H12.8c-1.8,0-3.5,0.2-5.2,0.5
	C3.6,1.6,1.2,4,0.3,8c-0.6,3.6,0.3,6.8,2.6,9.6C6,21.4,9.3,25,12.7,28.4c0.6,0.6,1,1.2,1.5,1.9c0.2,0.3,0.3,0.6,0.3,0.9
	c-0.1,1.1-0.7,1.7-1.7,1.8H0.2L3,42.5z"/>
<path d="M85.7,42.6l2.1-7.1c-2.1,0.1-4.1-0.2-6.1-0.8c-2.9-1-5-2.9-6.3-5.7c-1-2.3-1.3-4.7-0.8-7.2c0.5-2.1,1.9-3.3,4-3.6
	c2.8-0.2,5.6-0.3,8.4-0.2l-1.9-7.2h-6.8c-1.9,0-3.8,0.4-5.6,1.1c-2.3,1-4,2.5-5.2,4.8c-1,2.1-1.5,4.2-1.5,6.5c0,5,1.6,9.4,4.6,13.3
	c2.2,2.7,4.9,4.5,8.1,5.5C81,42.5,83.3,42.7,85.7,42.6"/>
<path class="st1" d="M85.7,42.6l2.1-7.1c-2.1,0.1-4.1-0.2-6.1-0.8c-2.9-1-5-2.9-6.3-5.7c-1-2.3-1.3-4.7-0.8-7.2
	c0.5-2.1,1.9-3.3,4-3.6c2.8-0.2,5.6-0.3,8.4-0.2l-1.9-7.2h-6.8c-1.9,0-3.8,0.4-5.6,1.1c-2.3,1-4,2.5-5.2,4.8c-1,2.1-1.5,4.2-1.5,6.5
	c0,5,1.6,9.4,4.6,13.3c2.2,2.7,4.9,4.5,8.1,5.5C81,42.5,83.3,42.7,85.7,42.6z"/>
<path d="M111.2,42.6l2.1-7.1c-2.1,0.1-4.1-0.2-6.1-0.8c-2.9-1-5-2.9-6.3-5.7c-1-2.3-1.3-4.7-0.8-7.2c0.5-2.1,1.9-3.3,4-3.6
	c2.8-0.2,5.6-0.3,8.4-0.2l-1.9-7.2h-6.8c-1.9,0-3.8,0.4-5.6,1.1c-2.3,1-4,2.5-5.2,4.8c-1,2.1-1.5,4.2-1.5,6.5c0,5,1.6,9.4,4.6,13.3
	c2.2,2.7,4.9,4.5,8.1,5.5C106.5,42.5,108.8,42.7,111.2,42.6"/>
<path class="st1" d="M111.2,42.6l2.1-7.1c-2.1,0.1-4.1-0.2-6.1-0.8c-2.9-1-5-2.9-6.3-5.7c-1-2.3-1.3-4.7-0.8-7.2
	c0.5-2.1,1.9-3.3,4-3.6c2.8-0.2,5.6-0.3,8.4-0.2l-1.9-7.2h-6.8c-1.9,0-3.8,0.4-5.6,1.1c-2.3,1-4,2.5-5.2,4.8c-1,2.1-1.5,4.2-1.5,6.5
	c0,5,1.6,9.4,4.6,13.3c2.2,2.7,4.9,4.5,8.1,5.5C106.5,42.5,108.8,42.7,111.2,42.6z"/>
<polygon points="118.2,42.6 138.2,42.6 140.4,35.4 126.6,35.4 126.6,29.9 136.2,29.9 138.3,22.6 126.6,22.6 126.6,17.8 139.4,17.8 
	137.3,10.6 118.2,10.6 "/>
<polygon class="st1" points="118.2,42.6 138.2,42.6 140.4,35.4 126.6,35.4 126.6,29.9 136.2,29.9 138.3,22.6 126.6,22.6 126.6,17.8 
	139.4,17.8 137.3,10.6 118.2,10.6 "/>
<path d="M193,42.6h8.3v-7.1c5-1.8,9.2-4.7,12.8-8.7c2.5-3,3.3-6.5,2.3-10.3c-0.8-2.5-2.5-4.2-5-5c-1.8-0.5-3.6-0.8-5.4-0.8h-12.4
	l-2.1,7.2h14c0.7,0,1.3,0.2,1.8,0.7c1.2,1.2,1.3,2.5,0.3,3.9c-1.8,2.1-3.9,3.8-6.2,5.2v-8.8H193V42.6z"/>
<path class="st1" d="M193,42.6h8.3v-7.1c5-1.8,9.2-4.7,12.8-8.7c2.5-3,3.3-6.5,2.3-10.3c-0.8-2.5-2.5-4.2-5-5
	c-1.8-0.5-3.6-0.8-5.4-0.8h-12.4l-2.1,7.2h14c0.7,0,1.3,0.2,1.8,0.7c1.2,1.2,1.3,2.5,0.3,3.9c-1.8,2.1-3.9,3.8-6.2,5.2v-8.8H193
	V42.6z"/>
<path d="M256.7,42.6h9.5c1.4,0,2.7-0.2,4-0.5c3.3-1.1,4.9-3.3,4.9-6.8c-0.2-2.5-1.2-4.7-2.9-6.5c-2.6-2.7-5.1-5.4-7.4-8.3
	c-0.3-0.3-0.5-0.7-0.6-1.1c0-0.1-0.1-0.3-0.1-0.4c0-0.7,0.4-1.1,1.1-1.2h8.9l-1.9-7.2h-8c-1.3,0-2.6,0.1-3.9,0.4
	c-3,0.7-4.8,2.6-5.5,5.6c-0.4,2.7,0.2,5.1,1.9,7.2c2.4,2.8,4.8,5.5,7.4,8.1c0.4,0.4,0.8,0.9,1.1,1.4c0.1,0.2,0.2,0.4,0.2,0.6
	c-0.1,0.8-0.5,1.3-1.3,1.4h-9.4L256.7,42.6z"/>
<path class="st1" d="M256.7,42.6h9.5c1.4,0,2.7-0.2,4-0.5c3.3-1.1,4.9-3.3,4.9-6.8c-0.2-2.5-1.2-4.7-2.9-6.5
	c-2.6-2.7-5.1-5.4-7.4-8.3c-0.3-0.3-0.5-0.7-0.6-1.1c0-0.1-0.1-0.3-0.1-0.4c0-0.7,0.4-1.1,1.1-1.2h8.9l-1.9-7.2h-8
	c-1.3,0-2.6,0.1-3.9,0.4c-3,0.7-4.8,2.6-5.5,5.6c-0.4,2.7,0.2,5.1,1.9,7.2c2.4,2.8,4.8,5.5,7.4,8.1c0.4,0.4,0.8,0.9,1.1,1.4
	c0.1,0.2,0.2,0.4,0.2,0.6c-0.1,0.8-0.5,1.3-1.3,1.4h-9.4L256.7,42.6z"/>
<polygon points="285.9,42.5 296.8,42.5 296.8,9.6 308.8,9.6 305.8,0.1 276.6,0.1 273.7,9.6 285.9,9.6 "/>
<polygon class="st1" points="285.9,42.5 296.8,42.5 296.8,9.6 308.8,9.6 305.8,0.1 276.6,0.1 273.7,9.6 285.9,9.6 "/>
<polygon class="st2" points="29.1,26.6 29.1,25.7 29.2,24.9 29.3,24.1 29.4,23.2 29.6,22.4 29.9,21.6 30.1,20.8 30.4,20.1 
	30.7,19.4 31.1,18.6 31.5,17.9 32,17.2 32.4,16.6 32.9,15.9 33.5,15.3 34,14.8 34.6,14.2 35.2,13.7 35.8,13.2 36.5,12.7 37.2,12.3 
	37.9,11.9 38.6,11.5 39.3,11.1 40.1,10.9 40.9,10.6 41.7,10.4 42.5,10.2 43.3,10 44.2,9.9 45,9.9 45.9,9.8 46.7,9.9 47.6,9.9 
	48.4,10 49.2,10.2 50.1,10.4 50.8,10.6 51.6,10.9 52.4,11.1 53.1,11.5 53.9,11.9 54.6,12.3 55.2,12.7 55.9,13.2 56.5,13.7 
	57.1,14.2 57.7,14.8 58.3,15.3 58.8,15.9 59.3,16.6 59.8,17.2 60.2,17.9 60.6,18.6 61,19.4 61.3,20.1 61.6,20.8 61.9,21.6 
	62.1,22.4 62.3,23.2 62.4,24.1 62.6,24.9 62.6,25.7 62.6,26.6 62.6,27.5 62.6,28.3 62.4,29.1 62.3,30 62.1,30.8 61.9,31.6 
	61.6,32.4 61.3,33.1 61,33.9 60.6,34.6 60.2,35.3 59.8,36 59.3,36.6 58.8,37.3 58.3,37.9 57.7,38.4 57.1,39 56.5,39.5 55.9,40 
	55.2,40.5 54.6,40.9 53.9,41.3 53.1,41.7 52.4,42 51.6,42.3 50.8,42.6 50.1,42.8 49.2,43 48.4,43.2 47.6,43.3 46.7,43.3 45.9,43.4 
	45,43.3 44.2,43.3 43.3,43.2 42.5,43 41.7,42.8 40.9,42.6 40.1,42.3 39.3,42 38.6,41.7 37.9,41.3 37.2,40.9 36.5,40.5 35.8,40 
	35.2,39.5 34.6,39 34,38.4 33.5,37.9 32.9,37.3 32.4,36.6 32,36 31.5,35.3 31.1,34.6 30.7,33.9 30.4,33.1 30.1,32.4 29.9,31.6 
	29.6,30.8 29.4,30 29.3,29.1 29.2,28.3 29.1,27.5 "/>
<polygon class="st3" points="29.1,26.6 29.1,25.7 29.2,24.9 29.3,24.1 29.4,23.2 29.6,22.4 29.9,21.6 30.1,20.8 30.4,20.1 
	30.7,19.4 31.1,18.6 31.5,17.9 32,17.2 32.4,16.6 32.9,15.9 33.5,15.3 34,14.8 34.6,14.2 35.2,13.7 35.8,13.2 36.5,12.7 37.2,12.3 
	37.9,11.9 38.6,11.5 39.3,11.1 40.1,10.9 40.9,10.6 41.7,10.4 42.5,10.2 43.3,10 44.2,9.9 45,9.9 45.9,9.8 46.7,9.9 47.6,9.9 
	48.4,10 49.2,10.2 50.1,10.4 50.8,10.6 51.6,10.9 52.4,11.1 53.1,11.5 53.9,11.9 54.6,12.3 55.2,12.7 55.9,13.2 56.5,13.7 
	57.1,14.2 57.7,14.8 58.3,15.3 58.8,15.9 59.3,16.6 59.8,17.2 60.2,17.9 60.6,18.6 61,19.4 61.3,20.1 61.6,20.8 61.9,21.6 
	62.1,22.4 62.3,23.2 62.4,24.1 62.6,24.9 62.6,25.7 62.6,26.6 62.6,27.5 62.6,28.3 62.4,29.1 62.3,30 62.1,30.8 61.9,31.6 
	61.6,32.4 61.3,33.1 61,33.9 60.6,34.6 60.2,35.3 59.8,36 59.3,36.6 58.8,37.3 58.3,37.9 57.7,38.4 57.1,39 56.5,39.5 55.9,40 
	55.2,40.5 54.6,40.9 53.9,41.3 53.1,41.7 52.4,42 51.6,42.3 50.8,42.6 50.1,42.8 49.2,43 48.4,43.2 47.6,43.3 46.7,43.3 45.9,43.4 
	45,43.3 44.2,43.3 43.3,43.2 42.5,43 41.7,42.8 40.9,42.6 40.1,42.3 39.3,42 38.6,41.7 37.9,41.3 37.2,40.9 36.5,40.5 35.8,40 
	35.2,39.5 34.6,39 34,38.4 33.5,37.9 32.9,37.3 32.4,36.6 32,36 31.5,35.3 31.1,34.6 30.7,33.9 30.4,33.1 30.1,32.4 29.9,31.6 
	29.6,30.8 29.4,30 29.3,29.1 29.2,28.3 29.1,27.5 "/>
<path class="st3" d="M29.1,26.6l0.3-3.4l1-3.1l1.5-2.8l2.1-2.5l2.5-2.1l2.9-1.5l3.1-1l3.4-0.3l3.4,0.3l3.1,1l2.8,1.5l2.5,2.1l2,2.5
	l1.6,2.8l1,3.1l0.4,3.4L62.3,30l-1,3.1l-1.6,2.8l-2,2.5l-2.5,2L52.4,42l-3.1,1l-3.4,0.4L42.5,43l-3.1-1l-2.9-1.6l-2.5-2l-2.1-2.5
	l-1.5-2.8l-1-3.1L29.1,26.6 M46.2,10.5L46.2,10.5l-0.1,0l-0.2-0.1l-0.2,0l-0.2-0.1l-0.2-0.1L45,10l-0.2-0.1 M34.9,26l-0.1-0.1
	l-0.1-0.3l-0.3-0.4l-0.3-0.5l-0.4-0.6l-0.4-0.7l-0.4-0.7l-0.4-0.7 M35.1,15.4l0.4-0.3L36,15l0.6-0.2l0.7-0.2l0.7-0.2l0.8-0.1
	l0.9-0.2l1-0.2 M43.3,18.4l-0.1,0.1L43,18.9l-0.3,0.5l-0.4,0.7l-0.4,0.8l-0.4,0.9l-0.4,1l-0.3,1"/>
<polygon class="st4" points="52,12.7 51.5,12.4 51,12.1 50,11.6 49.2,11.3 48.4,11 47.8,10.8 47.3,10.7 46.8,10.6 46.5,10.5 
	46.3,10.5 46,10.5 45.7,10.5 45.1,10.6 44.6,10.8 44,11 43.5,11.3 43,11.6 42.5,11.9 42.1,12.3 41.7,12.7 41.1,13.3 40.7,13.8 
	40.6,13.9 41.1,14.5 41.5,14.9 41.9,15.5 42.4,16.2 42.6,16.5 42.8,16.9 42.9,17.2 43.1,17.6 43.2,18 43.3,18.4 43.9,18.2 44.6,18 
	45.5,17.8 46,17.7 46.6,17.7 47.3,17.6 47.9,17.6 48.6,17.6 49.4,17.6 50.1,17.7 51,17.8 51.1,17.4 51.2,16.9 51.4,16.3 51.6,15.5 
	51.8,14.7 51.9,13.7 "/>
<polygon class="st1" points="52,12.7 51.5,12.4 51,12.1 50,11.6 49.2,11.3 48.4,11 47.8,10.8 47.3,10.7 46.8,10.6 46.5,10.5 
	46.3,10.5 46,10.5 45.7,10.5 45.1,10.6 44.6,10.8 44,11 43.5,11.3 43,11.6 42.5,11.9 42.1,12.3 41.7,12.7 41.1,13.3 40.7,13.8 
	40.6,13.9 41.1,14.5 41.5,14.9 41.9,15.5 42.4,16.2 42.6,16.5 42.8,16.9 42.9,17.2 43.1,17.6 43.2,18 43.3,18.4 43.9,18.2 44.6,18 
	45.5,17.8 46,17.7 46.6,17.7 47.3,17.6 47.9,17.6 48.6,17.6 49.4,17.6 50.1,17.7 51,17.8 51.1,17.4 51.2,16.9 51.4,16.3 51.6,15.5 
	51.8,14.7 51.9,13.7 "/>
<path class="st3" d="M52,12.7l-1-0.6L50,11.6l-0.8-0.4L48.4,11l-0.6-0.2l-0.5-0.1L47,10.6l-0.1,0l-1.2-0.1l-1.1,0.3l-1.1,0.5
	l-0.9,0.7l-0.8,0.7l-0.6,0.7l-0.4,0.5l-0.1,0.2l0.2,0.2l0.3,0.3l0.4,0.5l0.4,0.6l0.4,0.6l0.4,0.7l0.3,0.8l0.2,0.8l0.1-0.1l0.4-0.1
	l0.7-0.2l0.9-0.2l1.1-0.2l1.3-0.1l1.4,0l1.6,0.2l0-0.1l0.1-0.3l0.1-0.5l0.2-0.6l0.2-0.8l0.2-0.9l0.1-0.9L52,12.7 M52,12.7h0.1l0.3,0
	h0.5l0.6,0l0.6,0l0.7,0.1l0.6,0.1l0.6,0.2 M55,23.3l0-0.2l-0.1-0.4l-0.3-0.6l-0.4-0.7l-0.6-0.8l-0.7-0.9l-0.9-1l-1-0.9 M60.2,30.5
	L60.2,30.5l0.2,0.1l0.2,0.1l0.2,0.2l0.2,0.2l0.2,0.2l0.2,0.2l0.2,0.3"/>
<polygon class="st4" points="55.4,34.5 55.6,34.4 56.1,34.2 56.7,33.8 57.6,33.3 58,33.1 58.4,32.8 58.8,32.4 59.2,32.1 59.5,31.7 
	59.8,31.3 60,30.9 60.1,30.7 60.2,30.5 60.3,29.9 60.5,29.4 60.5,28.8 60.5,28.2 60.5,27.7 60.5,27.1 60.4,26.6 60.3,26.1 
	60.1,25.2 59.8,24.5 59.6,23.9 59.6,23.9 59.4,23.9 59,23.9 58.6,23.9 57.9,23.9 57.1,23.8 56.1,23.6 55,23.3 54.9,23.9 54.8,24.6 
	54.6,25.5 54.4,26 54.2,26.5 54,27 53.7,27.6 53.4,28.1 53.1,28.7 52.7,29.3 52.2,29.8 52.3,29.9 52.6,30.1 53,30.6 53.6,31.2 
	54.1,31.9 54.3,32.3 54.6,32.7 54.8,33.1 55,33.6 55.3,34 "/>
<polygon class="st1" points="55.4,34.5 55.6,34.4 56.1,34.2 56.7,33.8 57.6,33.3 58,33.1 58.4,32.8 58.8,32.4 59.2,32.1 59.5,31.7 
	59.8,31.3 60,30.9 60.1,30.7 60.2,30.5 60.3,29.9 60.5,29.4 60.5,28.8 60.5,28.2 60.5,27.7 60.5,27.1 60.4,26.6 60.3,26.1 
	60.1,25.2 59.8,24.5 59.6,23.9 59.6,23.9 59.4,23.9 59,23.9 58.6,23.9 57.9,23.9 57.1,23.8 56.1,23.6 55,23.3 54.9,23.9 54.8,24.6 
	54.6,25.5 54.4,26 54.2,26.5 54,27 53.7,27.6 53.4,28.1 53.1,28.7 52.7,29.3 52.2,29.8 52.3,29.9 52.6,30.1 53,30.6 53.6,31.2 
	54.1,31.9 54.3,32.3 54.6,32.7 54.8,33.1 55,33.6 55.3,34 "/>
<path class="st3" d="M55.4,34.5l0.2-0.1l0.5-0.2l0.7-0.4l0.8-0.5l0.8-0.6l0.8-0.7l0.6-0.8l0.4-0.8l0.3-1.1l0.1-1.1l-0.1-1.1l-0.2-1
	l-0.2-0.9l-0.2-0.7l-0.2-0.5l-0.1-0.1h-0.1l-0.2,0l-0.3,0h-0.5l-0.6-0.1l-0.8-0.1l-1-0.2L55,23.3l0,0.1l-0.1,0.4l-0.1,0.7l-0.2,0.9
	l-0.4,1l-0.5,1.1l-0.7,1.1l-0.9,1.1l0.1,0.1l0.3,0.3l0.4,0.4l0.5,0.6l0.5,0.7l0.5,0.8l0.4,0.9L55.4,34.5 M45.2,30.3h1.4l1.3,0
	l1.2-0.1l1-0.1L51,30l0.6-0.1l0.4-0.1l0.1,0"/>
<polygon class="st5" points="45.2,30.3 44.3,29.5 43.6,28.8 43,28.1 42.5,27.5 42.1,26.9 41.7,26.4 41.4,25.9 41.2,25.5 41.1,25.1 
	41,24.8 40.9,24.6 40.8,24.3 40.8,24 40.8,23.9 40.4,24.2 39.9,24.5 39.4,24.8 38.9,25 38.4,25.3 37.9,25.5 37,25.8 36.1,26 
	35.5,26.1 35.1,26.2 34.9,26.3 34.8,27 34.7,27.8 34.7,28.5 34.7,29.2 34.7,29.8 34.8,30.4 34.8,31 34.9,31.6 35.1,32.5 35.4,33.2 
	35.6,33.8 36.4,34.1 38.4,34.9 39.4,35.3 40.4,35.6 41.2,35.8 41.4,35.9 41.6,35.9 41.9,35.5 42.3,35 42.9,34.1 43.5,33.2 
	44.1,32.3 44.9,30.8 "/>
<polygon class="st1" points="45.2,30.3 44.3,29.5 43.6,28.8 43,28.1 42.5,27.5 42.1,26.9 41.7,26.4 41.4,25.9 41.2,25.5 41.1,25.1 
	41,24.8 40.9,24.6 40.8,24.3 40.8,24 40.8,23.9 40.4,24.2 39.9,24.5 39.4,24.8 38.9,25 38.4,25.3 37.9,25.5 37,25.8 36.1,26 
	35.5,26.1 35.1,26.2 34.9,26.3 34.8,27 34.7,27.8 34.7,28.5 34.7,29.2 34.7,29.8 34.8,30.4 34.8,31 34.9,31.6 35.1,32.5 35.4,33.2 
	35.6,33.8 36.4,34.1 38.4,34.9 39.4,35.3 40.4,35.6 41.2,35.8 41.4,35.9 41.6,35.9 41.9,35.5 42.3,35 42.9,34.1 43.5,33.2 
	44.1,32.3 44.9,30.8 "/>
<path class="st3" d="M45.2,30.3l-1.6-1.6l-1.1-1.3l-0.8-1.1l-0.5-0.9l-0.3-0.7l-0.1-0.5l0-0.3l0-0.1l-1,0.6l-1,0.5l-1,0.4L37,25.8
	L36.1,26l-0.6,0.1l-0.4,0.1l-0.1,0l-0.2,1.5l0,1.4l0.1,1.3l0.2,1.1l0.2,0.9l0.2,0.7l0.2,0.4l0.1,0.2l0.2,0.1l0.6,0.2l0.9,0.4l1,0.4
	l1,0.4l1,0.4l0.8,0.2l0.5,0.1l0.7-0.9l0.7-0.9l0.6-0.9l0.5-0.9l0.4-0.8l0.3-0.6l0.2-0.4L45.2,30.3 M33,35.4L33,35.4l0.2-0.1l0.3-0.1
	l0.4-0.2l0.4-0.3l0.4-0.3l0.5-0.4l0.5-0.4"/>
<polygon class="st4" points="30.8,33.9 30.9,34.2 31,34.5 31.3,34.9 31.5,35.3 31.8,35.8 32.2,36.3 33.4,37.8 33.2,36.9 33.1,36.2 
	33,35.4 32.4,35 "/>
<polygon class="st1" points="30.8,33.9 30.9,34.2 31,34.5 31.3,34.9 31.5,35.3 31.8,35.8 32.2,36.3 33.4,37.8 33.2,36.9 33.1,36.2 
	33,35.4 32.4,35 "/>
<path class="st3" d="M30.8,33.9l0.1,0.3l0.1,0.3l0.2,0.4l0.3,0.4l0.3,0.5l0.4,0.6l0.5,0.7l0.6,0.8l0-0.1l0-0.2l-0.1-0.3l-0.1-0.3
	l-0.1-0.4l-0.1-0.4L33,35.8l0-0.4l0,0l-0.1-0.1l-0.2-0.1L32.4,35l-0.3-0.2l-0.4-0.3l-0.4-0.3L30.8,33.9 M52.3,39.5l0.1-0.1l0.3-0.3
	l0.4-0.5l0.5-0.6l0.5-0.8l0.5-0.8l0.5-0.9l0.4-1 M41.6,35.9l0.1,0.1l0.3,0.4l0.4,0.6l0.5,0.7l0.5,0.8l0.6,0.7l0.6,0.6l0.5,0.4"/>
<polygon class="st4" points="35.1,15.4 35,15.3 34.9,14.9 34.9,14.6 34.9,14.3 34.9,14 35,13.7 34.1,14.6 33.3,15.5 32.7,16.4 
	32,17.2 31.5,18 31,18.8 30.6,19.6 30.3,20.3 30,21 29.8,21.7 29.6,22.3 29.5,22.8 29.4,23.4 29.3,23.8 29.2,24.6 29.5,24.1 
	29.8,23.7 30.2,23.1 30.5,22.9 30.7,22.7 31,22.5 31.3,22.3 31.5,22.1 31.8,22.1 32.1,22.1 32.4,22.1 32.4,21.8 32.4,21.5 
	32.4,20.8 32.6,20 32.7,19.6 32.8,19.2 33.2,18.3 33.4,17.9 33.7,17.4 34,16.9 34.3,16.5 34.7,15.9 "/>
<polygon class="st1" points="35.1,15.4 35,15.3 34.9,14.9 34.9,14.6 34.9,14.3 34.9,14 35,13.7 34.1,14.6 33.3,15.5 32.7,16.4 
	32,17.2 31.5,18 31,18.8 30.6,19.6 30.3,20.3 30,21 29.8,21.7 29.6,22.3 29.5,22.8 29.4,23.4 29.3,23.8 29.2,24.6 29.5,24.1 
	29.8,23.7 30.2,23.1 30.5,22.9 30.7,22.7 31,22.5 31.3,22.3 31.5,22.1 31.8,22.1 32.1,22.1 32.4,22.1 32.4,21.8 32.4,21.5 
	32.4,20.8 32.6,20 32.7,19.6 32.8,19.2 33.2,18.3 33.4,17.9 33.7,17.4 34,16.9 34.3,16.5 34.7,15.9 "/>
<polyline class="st3" points="35.1,15.4 35,15.4 35,15.3 34.9,15.1 34.9,14.9 34.9,14.6 34.9,14.3 34.9,14 35,13.7 33.3,15.5 
	32,17.2 31,18.8 30.3,20.3 29.8,21.6 29.5,22.8 29.3,23.8 29.2,24.6 29.3,24.5 29.5,24.1 29.8,23.6 30.2,23.1 30.7,22.7 31.2,22.3 
	31.8,22.1 32.4,22.1 32.4,21.5 32.4,20.8 32.6,20 32.8,19.2 33.2,18.3 33.7,17.4 34.3,16.4 35.1,15.4 "/>
<polygon class="st4" points="42.3,43 42.6,42.8 42.8,42.6 43.4,42.2 43.8,41.8 44.2,41.3 44.5,40.9 44.8,40.6 45,40.3 45.1,40.3 
	45.6,40.4 46.3,40.6 46.8,40.7 47.3,40.7 47.9,40.7 48.5,40.7 49.1,40.7 49.7,40.6 50.4,40.5 51,40.2 51.7,39.9 52.3,39.5 
	52.5,39.8 52.7,40 53,40.2 53.2,40.3 53.5,40.4 53.7,40.5 54,40.5 54.2,40.5 54.7,40.5 55,40.4 55.4,40.3 54.9,40.7 54.4,41 
	53.9,41.3 53.4,41.6 52.9,41.9 52.3,42.1 51.8,42.3 51.3,42.5 50.2,42.8 49.2,43.1 48.2,43.2 47.2,43.3 46.3,43.3 45.4,43.3 
	44.7,43.3 44,43.3 42.9,43.1 "/>
<polyline class="st3" points="61,19.3 61,19.4 60.9,19.8 60.9,20.3 60.9,20.9 60.7,21.6 60.5,22.4 60.1,23.1 59.7,23.9 "/>
<polygon class="st2" points="219,26.6 219,25.7 219.1,24.9 219.2,24.1 219.3,23.2 219.5,22.4 219.7,21.6 220,20.8 220.3,20.1 
	220.6,19.4 221,18.6 221.4,17.9 221.8,17.2 222.3,16.6 222.8,15.9 223.3,15.3 223.9,14.8 224.5,14.2 225.1,13.7 225.7,13.2 
	226.4,12.7 227.1,12.3 227.8,11.9 228.5,11.5 229.2,11.1 230,10.9 230.8,10.6 231.6,10.4 232.4,10.2 233.2,10 234,9.9 234.9,9.9 
	235.7,9.8 236.6,9.9 237.5,9.9 238.3,10 239.1,10.2 239.9,10.4 240.7,10.6 241.5,10.9 242.3,11.1 243,11.5 243.7,11.9 244.4,12.3 
	245.1,12.7 245.8,13.2 246.4,13.7 247,14.2 247.6,14.8 248.1,15.3 248.7,15.9 249.2,16.6 249.6,17.2 250.1,17.9 250.5,18.6 
	250.9,19.4 251.2,20.1 251.5,20.8 251.8,21.6 252,22.4 252.2,23.2 252.3,24.1 252.4,24.9 252.5,25.7 252.5,26.6 252.5,27.5 
	252.4,28.3 252.3,29.1 252.2,30 252,30.8 251.8,31.6 251.5,32.4 251.2,33.1 250.9,33.9 250.5,34.6 250.1,35.3 249.6,36 249.2,36.6 
	248.7,37.3 248.1,37.9 247.6,38.4 247,39 246.4,39.5 245.8,40 245.1,40.5 244.4,40.9 243.7,41.3 243,41.7 242.3,42 241.5,42.3 
	240.7,42.6 239.9,42.8 239.1,43 238.3,43.2 237.5,43.3 236.6,43.3 235.7,43.4 234.9,43.3 234,43.3 233.2,43.2 232.4,43 231.6,42.8 
	230.8,42.6 230,42.3 229.2,42 228.5,41.7 227.8,41.3 227.1,40.9 226.4,40.5 225.7,40 225.1,39.5 224.5,39 223.9,38.4 223.3,37.9 
	222.8,37.3 222.3,36.6 221.8,36 221.4,35.3 221,34.6 220.6,33.9 220.3,33.1 220,32.4 219.7,31.6 219.5,30.8 219.3,30 219.2,29.1 
	219.1,28.3 219,27.5 "/>
<polygon class="st3" points="219,26.6 219,25.7 219.1,24.9 219.2,24.1 219.3,23.2 219.5,22.4 219.7,21.6 220,20.8 220.3,20.1 
	220.6,19.4 221,18.6 221.4,17.9 221.8,17.2 222.3,16.6 222.8,15.9 223.3,15.3 223.9,14.8 224.5,14.2 225.1,13.7 225.7,13.2 
	226.4,12.7 227.1,12.3 227.8,11.9 228.5,11.5 229.2,11.1 230,10.9 230.8,10.6 231.6,10.4 232.4,10.2 233.2,10 234,9.9 234.9,9.9 
	235.7,9.8 236.6,9.9 237.5,9.9 238.3,10 239.1,10.2 239.9,10.4 240.7,10.6 241.5,10.9 242.3,11.1 243,11.5 243.7,11.9 244.4,12.3 
	245.1,12.7 245.8,13.2 246.4,13.7 247,14.2 247.6,14.8 248.1,15.3 248.7,15.9 249.2,16.6 249.6,17.2 250.1,17.9 250.5,18.6 
	250.9,19.4 251.2,20.1 251.5,20.8 251.8,21.6 252,22.4 252.2,23.2 252.3,24.1 252.4,24.9 252.5,25.7 252.5,26.6 252.5,27.5 
	252.4,28.3 252.3,29.1 252.2,30 252,30.8 251.8,31.6 251.5,32.4 251.2,33.1 250.9,33.9 250.5,34.6 250.1,35.3 249.6,36 249.2,36.6 
	248.7,37.3 248.1,37.9 247.6,38.4 247,39 246.4,39.5 245.8,40 245.1,40.5 244.4,40.9 243.7,41.3 243,41.7 242.3,42 241.5,42.3 
	240.7,42.6 239.9,42.8 239.1,43 238.3,43.2 237.5,43.3 236.6,43.3 235.7,43.4 234.9,43.3 234,43.3 233.2,43.2 232.4,43 231.6,42.8 
	230.8,42.6 230,42.3 229.2,42 228.5,41.7 227.8,41.3 227.1,40.9 226.4,40.5 225.7,40 225.1,39.5 224.5,39 223.9,38.4 223.3,37.9 
	222.8,37.3 222.3,36.6 221.8,36 221.4,35.3 221,34.6 220.6,33.9 220.3,33.1 220,32.4 219.7,31.6 219.5,30.8 219.3,30 219.2,29.1 
	219.1,28.3 219,27.5 "/>
<path class="st3" d="M219,26.6l0.3-3.4l1-3.1l1.5-2.8l2.1-2.5l2.5-2.1l2.8-1.5l3.1-1l3.4-0.3l3.4,0.3l3.1,1l2.8,1.5l2.5,2.1l2,2.5
	l1.6,2.8l1,3.1l0.4,3.4l-0.4,3.4l-1,3.1l-1.6,2.8l-2,2.5l-2.5,2l-2.8,1.6l-3.1,1l-3.4,0.4l-3.4-0.4l-3.1-1l-2.8-1.6l-2.5-2l-2.1-2.5
	l-1.5-2.8l-1-3.1L219,26.6 M236,10.5L236,10.5l-0.1,0l-0.2-0.1l-0.2,0l-0.2-0.1l-0.2-0.1l-0.2-0.1l-0.2-0.1 M224.8,26l-0.1-0.1
	l-0.1-0.3l-0.3-0.4l-0.3-0.5l-0.4-0.6l-0.4-0.7l-0.4-0.7l-0.4-0.7 M225,15.4l0.4-0.3l0.5-0.2l0.6-0.2l0.7-0.2l0.7-0.2l0.8-0.1
	l0.9-0.2l1-0.2 M233.2,18.4l-0.1,0.1l-0.2,0.3l-0.3,0.5l-0.4,0.7l-0.4,0.8l-0.4,0.9l-0.4,1l-0.3,1"/>
<polygon class="st4" points="241.8,12.7 241.3,12.4 240.8,12.1 239.9,11.6 239,11.3 238.3,11 237.7,10.8 237.2,10.7 236.7,10.6 
	236.4,10.5 236.1,10.5 235.9,10.5 235.5,10.5 235,10.6 234.4,10.8 233.9,11 233.4,11.3 232.9,11.6 232.4,11.9 232,12.3 231.6,12.7 
	231,13.3 230.6,13.8 230.4,13.9 231,14.5 231.4,14.9 231.8,15.5 232.2,16.2 232.4,16.5 232.6,16.9 232.8,17.2 233,17.6 233.1,18 
	233.1,18.4 233.7,18.2 234.4,18 235.4,17.8 235.9,17.7 236.5,17.7 237.1,17.6 237.8,17.6 238.5,17.6 239.3,17.6 240,17.7 
	240.8,17.8 241,17.4 241.1,16.9 241.3,16.3 241.5,15.5 241.6,14.7 241.8,13.7 "/>
<polygon class="st1" points="241.8,12.7 241.3,12.4 240.8,12.1 239.9,11.6 239,11.3 238.3,11 237.7,10.8 237.2,10.7 236.7,10.6 
	236.4,10.5 236.1,10.5 235.9,10.5 235.5,10.5 235,10.6 234.4,10.8 233.9,11 233.4,11.3 232.9,11.6 232.4,11.9 232,12.3 231.6,12.7 
	231,13.3 230.6,13.8 230.4,13.9 231,14.5 231.4,14.9 231.8,15.5 232.2,16.2 232.4,16.5 232.6,16.9 232.8,17.2 233,17.6 233.1,18 
	233.1,18.4 233.7,18.2 234.4,18 235.4,17.8 235.9,17.7 236.5,17.7 237.1,17.6 237.8,17.6 238.5,17.6 239.3,17.6 240,17.7 
	240.8,17.8 241,17.4 241.1,16.9 241.3,16.3 241.5,15.5 241.6,14.7 241.8,13.7 "/>
<path class="st3" d="M241.8,12.7l-1-0.6l-0.9-0.5l-0.8-0.4l-0.7-0.3l-0.6-0.2l-0.5-0.1l-0.3-0.1l-0.1,0l-1.2-0.1l-1.1,0.3l-1.1,0.5
	l-0.9,0.7l-0.8,0.7l-0.6,0.7l-0.4,0.5l-0.1,0.2l0.2,0.2l0.3,0.3l0.4,0.5l0.4,0.6l0.4,0.6l0.4,0.7l0.3,0.8l0.2,0.8l0.1-0.1l0.4-0.1
	l0.7-0.2l0.9-0.2l1.1-0.2l1.3-0.1l1.4,0l1.6,0.2l0-0.1l0.1-0.3l0.1-0.5l0.2-0.6l0.2-0.8l0.2-0.9l0.1-0.9L241.8,12.7 M241.9,12.7h0.1
	l0.3,0h0.5l0.6,0l0.6,0l0.7,0.1l0.6,0.1l0.6,0.2 M244.8,23.3l0-0.2l-0.1-0.4l-0.3-0.6l-0.4-0.7l-0.6-0.8l-0.7-0.9l-0.9-1l-1-0.9
	 M250.1,30.5L250.1,30.5l0.2,0.1l0.2,0.1l0.2,0.2l0.2,0.2l0.2,0.2l0.2,0.2l0.2,0.3"/>
<polygon class="st4" points="245.3,34.5 245.5,34.4 245.9,34.2 246.6,33.8 247.4,33.3 247.9,33.1 248.3,32.8 248.7,32.4 249.1,32.1 
	249.4,31.7 249.7,31.3 249.9,30.9 250,30.7 250,30.5 250.2,29.9 250.3,29.4 250.4,28.8 250.4,28.2 250.4,27.7 250.3,27.1 
	250.3,26.6 250.2,26.1 249.9,25.2 249.7,24.5 249.5,23.9 249.4,23.9 249.2,23.9 248.9,23.9 248.4,23.9 247.8,23.9 247,23.8 
	246,23.6 244.8,23.3 244.8,23.9 244.6,24.6 244.4,25.5 244.3,26 244.1,26.5 243.9,27 243.6,27.6 243.3,28.1 242.9,28.7 242.5,29.3 
	242.1,29.8 242.2,29.9 242.5,30.1 242.9,30.6 243.4,31.2 243.9,31.9 244.2,32.3 244.5,32.7 244.7,33.1 244.9,33.6 245.1,34 "/>
<polygon class="st1" points="245.3,34.5 245.5,34.4 245.9,34.2 246.6,33.8 247.4,33.3 247.9,33.1 248.3,32.8 248.7,32.4 249.1,32.1 
	249.4,31.7 249.7,31.3 249.9,30.9 250,30.7 250,30.5 250.2,29.9 250.3,29.4 250.4,28.8 250.4,28.2 250.4,27.7 250.3,27.1 
	250.3,26.6 250.2,26.1 249.9,25.2 249.7,24.5 249.5,23.9 249.4,23.9 249.2,23.9 248.9,23.9 248.4,23.9 247.8,23.9 247,23.8 
	246,23.6 244.8,23.3 244.8,23.9 244.6,24.6 244.4,25.5 244.3,26 244.1,26.5 243.9,27 243.6,27.6 243.3,28.1 242.9,28.7 242.5,29.3 
	242.1,29.8 242.2,29.9 242.5,30.1 242.9,30.6 243.4,31.2 243.9,31.9 244.2,32.3 244.5,32.7 244.7,33.1 244.9,33.6 245.1,34 "/>
<path class="st3" d="M245.3,34.5l0.2-0.1l0.5-0.2l0.7-0.4l0.8-0.5l0.8-0.6l0.8-0.7l0.6-0.8l0.4-0.8l0.3-1.1l0.1-1.1l-0.1-1.1l-0.2-1
	l-0.2-0.9l-0.2-0.7l-0.2-0.5l-0.1-0.1h-0.1l-0.2,0l-0.3,0h-0.5l-0.7-0.1l-0.8-0.1l-1-0.2l-1.2-0.3l0,0.1l-0.1,0.4l-0.1,0.7l-0.2,0.9
	l-0.4,1l-0.5,1.1l-0.7,1.1l-0.9,1.1l0.1,0.1l0.3,0.3l0.4,0.4l0.5,0.6l0.5,0.7l0.5,0.8l0.4,0.9L245.3,34.5 M235.1,30.3h1.4l1.3,0
	l1.2-0.1l1-0.1l0.8-0.1l0.6-0.1l0.4-0.1l0.1,0"/>
<polygon class="st5" points="235.1,30.3 234.2,29.5 233.5,28.8 232.9,28.1 232.4,27.5 231.9,26.9 231.6,26.4 231.3,25.9 231.1,25.5 
	230.9,25.1 230.8,24.8 230.8,24.6 230.7,24.3 230.7,24 230.7,23.9 230.2,24.2 229.8,24.5 229.3,24.8 228.7,25 228.3,25.3 
	227.8,25.5 226.8,25.8 226,26 225.4,26.1 225,26.2 224.8,26.3 224.7,27 224.6,27.8 224.6,28.5 224.6,29.2 224.6,29.8 224.6,30.4 
	224.7,31 224.8,31.6 225,32.5 225.2,33.2 225.5,33.8 226.3,34.1 228.2,34.9 229.3,35.3 230.3,35.6 231,35.8 231.3,35.9 231.5,35.9 
	231.8,35.5 232.2,35 232.8,34.1 233.4,33.2 234,32.3 234.8,30.8 "/>
<polygon class="st1" points="235.1,30.3 234.2,29.5 233.5,28.8 232.9,28.1 232.4,27.5 231.9,26.9 231.6,26.4 231.3,25.9 231.1,25.5 
	230.9,25.1 230.8,24.8 230.8,24.6 230.7,24.3 230.7,24 230.7,23.9 230.2,24.2 229.8,24.5 229.3,24.8 228.7,25 228.3,25.3 
	227.8,25.5 226.8,25.8 226,26 225.4,26.1 225,26.2 224.8,26.3 224.7,27 224.6,27.8 224.6,28.5 224.6,29.2 224.6,29.8 224.6,30.4 
	224.7,31 224.8,31.6 225,32.5 225.2,33.2 225.5,33.8 226.3,34.1 228.2,34.9 229.3,35.3 230.3,35.6 231,35.8 231.3,35.9 231.5,35.9 
	231.8,35.5 232.2,35 232.8,34.1 233.4,33.2 234,32.3 234.8,30.8 "/>
<path class="st3" d="M235.1,30.3l-1.6-1.6l-1.1-1.3l-0.8-1.1l-0.5-0.9l-0.3-0.7l-0.1-0.5l0-0.3l0-0.1l-1,0.6l-1,0.5l-1,0.4l-0.9,0.3
	L226,26l-0.6,0.1l-0.4,0.1l-0.1,0l-0.2,1.5l0,1.4l0.1,1.3l0.2,1.1l0.2,0.9l0.2,0.7l0.2,0.4l0.1,0.2l0.2,0.1l0.6,0.2l0.9,0.4l1,0.4
	l1,0.4l1,0.4l0.8,0.2l0.5,0.1l0.7-0.9l0.7-0.9l0.6-0.9l0.5-0.9l0.4-0.8l0.3-0.6l0.2-0.4L235.1,30.3 M222.8,35.4L222.8,35.4l0.2-0.1
	l0.3-0.1l0.4-0.2l0.4-0.3l0.4-0.3L225,34l0.5-0.4"/>
<polygon class="st4" points="220.7,33.9 220.8,34.2 220.9,34.5 221.1,34.9 221.4,35.3 221.7,35.8 222.1,36.3 223.3,37.8 223.1,36.9 
	223,36.2 222.8,35.4 222.3,35 "/>
<polygon class="st1" points="220.7,33.9 220.8,34.2 220.9,34.5 221.1,34.9 221.4,35.3 221.7,35.8 222.1,36.3 223.3,37.8 223.1,36.9 
	223,36.2 222.8,35.4 222.3,35 "/>
<path class="st3" d="M220.7,33.9l0.1,0.3l0.1,0.3l0.2,0.4l0.3,0.4l0.3,0.5l0.4,0.6l0.5,0.7l0.6,0.8l0-0.1l0-0.2l-0.1-0.3l-0.1-0.3
	l-0.1-0.4l-0.1-0.4l-0.1-0.4l0-0.4l0,0l-0.1-0.1l-0.2-0.1l-0.2-0.2l-0.3-0.2l-0.4-0.3l-0.4-0.3L220.7,33.9 M242.2,39.5l0.1-0.1
	l0.3-0.3l0.4-0.5l0.5-0.6l0.5-0.8l0.5-0.8l0.5-0.9l0.4-1 M231.4,35.9l0.1,0.1l0.3,0.4l0.4,0.6l0.5,0.7l0.5,0.8l0.6,0.7l0.6,0.6
	l0.5,0.4"/>
<polygon class="st4" points="224.9,15.4 224.9,15.3 224.8,14.9 224.8,14.6 224.8,14.3 224.8,14 224.9,13.7 224,14.6 223.2,15.5 
	222.5,16.4 221.9,17.2 221.4,18 220.9,18.8 220.5,19.6 220.2,20.3 219.9,21 219.7,21.7 219.5,22.3 219.3,22.8 219.2,23.4 
	219.2,23.8 219.1,24.6 219.4,24.1 219.7,23.7 220.1,23.1 220.3,22.9 220.6,22.7 220.8,22.5 221.1,22.3 221.4,22.1 221.7,22.1 
	222,22.1 222.3,22.1 222.3,21.8 222.3,21.5 222.3,20.8 222.5,20 222.6,19.6 222.7,19.2 223.1,18.3 223.3,17.9 223.6,17.4 
	223.8,16.9 224.2,16.5 224.6,15.9 "/>
<polygon class="st1" points="224.9,15.4 224.9,15.3 224.8,14.9 224.8,14.6 224.8,14.3 224.8,14 224.9,13.7 224,14.6 223.2,15.5 
	222.5,16.4 221.9,17.2 221.4,18 220.9,18.8 220.5,19.6 220.2,20.3 219.9,21 219.7,21.7 219.5,22.3 219.3,22.8 219.2,23.4 
	219.2,23.8 219.1,24.6 219.4,24.1 219.7,23.7 220.1,23.1 220.3,22.9 220.6,22.7 220.8,22.5 221.1,22.3 221.4,22.1 221.7,22.1 
	222,22.1 222.3,22.1 222.3,21.8 222.3,21.5 222.3,20.8 222.5,20 222.6,19.6 222.7,19.2 223.1,18.3 223.3,17.9 223.6,17.4 
	223.8,16.9 224.2,16.5 224.6,15.9 "/>
<polyline class="st3" points="224.9,15.4 224.9,15.4 224.9,15.3 224.8,15.1 224.8,14.9 224.7,14.6 224.7,14.3 224.8,14 224.9,13.7 
	223.2,15.5 221.9,17.2 220.9,18.8 220.2,20.3 219.7,21.6 219.3,22.8 219.2,23.8 219.1,24.6 219.1,24.5 219.4,24.1 219.7,23.6 
	220.1,23.1 220.6,22.7 221.1,22.3 221.7,22.1 222.3,22.1 222.3,21.5 222.3,20.8 222.5,20 222.7,19.2 223.1,18.3 223.5,17.4 
	224.2,16.4 224.9,15.4 "/>
<polygon class="st4" points="232.1,43 232.4,42.8 232.7,42.6 233.2,42.2 233.7,41.8 234.1,41.3 234.4,40.9 234.6,40.6 234.9,40.3 
	235,40.3 235.5,40.4 236.2,40.6 236.7,40.7 237.2,40.7 237.7,40.7 238.3,40.7 238.9,40.7 239.6,40.6 240.2,40.5 240.9,40.2 
	241.5,39.9 242.2,39.5 242.4,39.8 242.6,40 242.8,40.2 243.1,40.3 243.3,40.4 243.6,40.5 243.8,40.5 244.1,40.5 244.6,40.5 
	244.9,40.4 245.3,40.3 244.8,40.7 244.3,41 243.8,41.3 243.3,41.6 242.7,41.9 242.2,42.1 241.7,42.3 241.1,42.5 240.1,42.8 
	239.1,43.1 238.1,43.2 237.1,43.3 236.2,43.3 235.3,43.3 234.5,43.3 233.8,43.3 232.8,43.1 "/>
<polyline class="st3" points="250.9,19.3 250.8,19.4 250.8,19.8 250.8,20.3 250.7,20.9 250.6,21.6 250.4,22.4 250,23.1 249.5,23.9 
	"/>
</svg>
