<?xml version="1.0" standalone="no"?>
<!DOCTYPE svg PUBLIC "-//W3C//DTD SVG 20010904//EN"
 "http://www.w3.org/TR/2001/REC-SVG-20010904/DTD/svg10.dtd">
<svg version="1.0" xmlns="http://www.w3.org/2000/svg"
 width="1264.000000pt" height="1249.000000pt" viewBox="0 0 1264.000000 1249.000000"
 preserveAspectRatio="xMidYMid meet">
<metadata>
Created by potrace 1.16, written by Peter Selinger 2001-2019
</metadata>
<g transform="translate(0.000000,1249.000000) scale(0.100000,-0.100000)"
fill="#000000" stroke="none">
<path d="M5890 12430 c-1813 -122 -3477 -997 -4590 -2415 -633 -806 -1057
-1767 -1224 -2770 -28 -167 -39 -250 -61 -470 -21 -207 -21 -868 0 -1095 150
-1632 938 -3127 2210 -4191 383 -320 859 -627 1294 -836 738 -352 1501 -557
2311 -618 193 -15 741 -22 855 -11 33 3 132 13 220 21 1422 137 2677 697 3750
1674 161 146 502 522 679 749 640 817 1084 1862 1225 2882 47 340 61 545 61
874 0 503 -47 920 -155 1388 -388 1674 -1482 3134 -2990 3991 -806 457 -1638
720 -2580 813 -176 18 -818 27 -1005 14z m798 -343 l27 -27 -25 -2 c-14 0 -31
-2 -39 -2 -8 -1 -15 -10 -17 -20 -3 -20 -23 -38 -35 -30 -4 2 -11 -1 -15 -7
-4 -8 -3 -9 4 -5 7 4 12 2 12 -3 0 -6 9 -11 20 -11 11 0 20 -4 20 -10 0 -5 -4
-10 -9 -10 -8 0 -21 -30 -25 -55 0 -5 -13 -11 -28 -13 -26 -3 -49 -32 -25 -32
7 0 -1 -11 -18 -25 -21 -18 -38 -24 -57 -20 -16 2 -28 0 -28 -5 0 -6 5 -10 11
-10 5 0 7 -5 3 -11 -3 -6 -17 -9 -30 -6 -21 4 -25 -2 -39 -48 -8 -29 -15 -56
-15 -59 0 -15 24 -4 42 19 19 25 86 65 108 65 17 0 11 -73 -10 -107 -20 -34
-60 -48 -116 -41 -20 2 -28 8 -26 19 2 12 -8 18 -38 23 -25 4 -64 24 -101 51
-44 32 -71 45 -95 45 -19 0 -34 5 -34 12 0 7 -7 5 -17 -5 -27 -23 -89 -32 -99
-14 -7 12 -18 14 -54 7 -25 -5 -75 -9 -113 -10 -40 0 -131 -14 -222 -35 -181
-41 -205 -49 -205 -69 0 -17 45 -66 60 -66 6 0 10 -4 10 -9 0 -21 -186 -41
-206 -21 -5 5 -20 7 -33 3 -15 -4 -19 -8 -11 -13 7 -4 -28 -17 -80 -29 -99
-23 -124 -26 -116 -13 2 4 -43 20 -100 34 l-106 27 -91 -35 c-51 -19 -96 -39
-100 -43 -11 -11 62 -71 85 -71 20 0 14 28 -11 48 -24 19 -1 46 45 52 55 8 73
2 90 -32 13 -25 20 -29 41 -24 16 5 22 3 18 -4 -3 -5 -14 -10 -23 -10 -48 -1
-513 -171 -701 -257 -30 -14 -77 -33 -105 -43 -28 -9 -60 -20 -71 -24 -11 -4
0 4 25 18 l45 24 -27 7 c-16 4 -25 11 -22 16 11 18 -118 -22 -146 -44 -8 -8
-46 -26 -85 -42 -100 -41 -271 -146 -335 -206 -30 -29 -78 -70 -107 -91 -50
-38 -90 -85 -85 -101 1 -4 -1 -6 -5 -6 -20 3 -33 -2 -31 -12 3 -10 -62 -62
-173 -138 -27 -19 -26 -16 8 13 26 23 40 42 36 51 -3 8 -8 15 -12 15 -14 0
-101 -83 -101 -96 0 -8 -11 -21 -25 -30 -25 -16 -36 -42 -12 -28 29 17 -39
-47 -109 -102 -306 -240 -510 -448 -781 -796 -50 -65 -112 -146 -136 -180 -65
-91 -263 -400 -311 -485 -23 -40 -47 -73 -54 -73 -12 0 -54 -38 -194 -173 -38
-37 -65 -56 -75 -53 -8 3 -20 3 -26 -1 -28 -17 -35 -11 -31 26 l5 36 -19 -44
c-18 -41 -57 -80 -51 -49 3 13 -27 78 -37 78 -2 0 0 -9 6 -19 5 -11 7 -27 4
-35 -3 -9 -1 -16 5 -16 9 0 9 -5 0 -21 -6 -12 -9 -29 -6 -39 3 -10 -1 -27 -8
-37 -15 -22 -82 -146 -147 -272 -30 -58 -45 -98 -39 -105 11 -14 14 -104 4
-119 -4 -7 -8 -16 -8 -21 0 -5 -6 -11 -12 -13 -18 -6 -16 32 2 47 17 14 20 50
5 50 -5 0 -10 7 -10 16 0 9 5 12 11 8 7 -4 10 -1 7 7 -5 14 -9 16 -53 18 -17
1 -25 7 -25 19 0 10 -6 24 -12 30 -9 9 -9 15 -2 20 6 4 4 13 -8 24 -15 15 -18
15 -18 3 0 -8 -4 -15 -9 -15 -6 0 -8 9 -6 19 2 14 -1 18 -10 14 -14 -5 -35
-61 -35 -93 0 -9 -10 -22 -21 -30 -12 -8 -34 -24 -48 -36 -14 -11 -41 -29 -58
-39 -32 -19 -37 -29 -34 -71 1 -12 -9 -54 -23 -94 -15 -41 -26 -92 -25 -114 0
-23 3 -34 6 -26 4 8 13 21 21 29 13 13 14 12 7 -8 -6 -20 -4 -23 9 -18 21 8
21 6 -12 -50 -32 -54 -49 -163 -30 -193 9 -14 1 -53 -34 -175 -40 -139 -44
-162 -35 -198 18 -72 -36 -467 -64 -467 -5 0 -11 -17 -15 -37 -9 -49 -29 -89
-51 -102 -10 -6 -14 -11 -9 -11 6 0 21 10 34 23 23 20 25 21 17 2 -4 -11 -11
-69 -16 -130 -5 -60 -10 -119 -13 -130 -2 -11 -5 -22 -5 -25 -1 -3 -5 1 -10 9
-7 11 -12 6 -19 -20 -21 -79 -24 275 -4 486 41 441 94 732 202 1130 110 406
360 990 580 1360 583 976 1389 1741 2382 2259 648 339 1340 556 2038 640 341
41 402 44 808 42 l323 -2 27 -27z m210 9 c2 -3 -1 -14 -9 -23 -13 -17 -13 -17
6 -1 19 15 31 15 185 -3 91 -10 192 -23 225 -29 33 -6 87 -15 120 -20 33 -6
79 -15 103 -20 23 -6 61 -14 85 -20 150 -34 196 -46 322 -82 188 -53 358 -109
352 -114 -2 -3 -24 2 -48 10 -58 21 -60 20 -49 -9 7 -20 6 -25 -5 -25 -10 0
-15 10 -15 30 0 18 -5 30 -13 30 -9 0 -12 -11 -9 -33 3 -23 11 -36 29 -44 14
-7 29 -10 33 -8 5 3 6 -3 3 -14 -6 -24 13 -36 33 -20 12 10 17 9 28 -6 7 -10
18 -15 24 -11 12 7 16 -5 13 -31 -1 -7 3 -13 9 -13 5 0 10 -7 10 -15 0 -8 5
-15 10 -15 6 0 10 -9 10 -19 0 -11 5 -23 10 -26 14 -9 12 -55 -2 -55 -8 0 -6
-6 5 -17 9 -9 20 -13 24 -9 5 5 2 11 -5 13 -13 5 -7 23 9 23 6 0 7 -4 4 -10
-3 -5 -1 -10 5 -10 7 0 10 -7 6 -15 -4 -11 1 -15 17 -15 16 0 19 3 8 9 -11 7
-9 11 8 20 12 7 38 29 57 49 24 25 32 29 24 15 -6 -13 -14 -23 -19 -23 -18 0
3 -62 28 -81 l26 -21 -25 6 c-24 7 -24 6 -6 -8 11 -9 24 -16 30 -16 5 0 7 -3
4 -6 -3 -3 -22 1 -41 10 -19 8 -37 12 -40 10 -3 -3 -24 4 -48 15 -44 20 -208
70 -386 117 -118 31 -146 42 -138 53 3 5 1 12 -4 15 -5 3 -6 21 -1 40 4 19 5
38 2 41 -4 3 11 5 31 3 23 -1 41 3 46 10 9 15 30 13 49 -5 19 -18 36 -16 18 2
-8 8 -17 24 -21 34 -4 14 -15 19 -36 19 -17 -1 -35 5 -40 13 -6 10 -9 10 -9 1
0 -9 -11 -10 -40 -6 -27 4 -40 3 -40 -5 0 -6 -8 -11 -17 -11 -13 0 -14 -3 -5
-12 15 -15 16 -32 2 -23 -5 3 -10 2 -10 -4 0 -5 -3 -17 -7 -27 -4 -12 -3 -15
5 -10 7 4 12 3 12 -2 0 -6 -7 -12 -15 -16 -8 -3 -15 -1 -15 4 0 6 -9 10 -20
10 -48 0 -12 -31 65 -57 l40 -13 -55 3 -55 3 3 -40 c5 -64 -25 -96 -91 -97
-49 -1 -50 -1 -20 -10 24 -7 31 -14 26 -25 -6 -17 -54 -14 -123 8 -34 11 -34
11 -10 21 14 5 36 9 50 8 l25 -1 -26 14 c-30 17 -42 51 -28 77 12 23 12 32 -1
24 -5 -3 -10 -4 -10 -1 0 2 -3 11 -6 19 -3 10 5 18 25 25 42 15 41 40 -1 40
-18 0 -55 6 -83 12 -50 11 -374 56 -492 67 -66 6 -71 10 -50 33 10 12 9 12 -5
1 -10 -7 -18 -20 -18 -28 0 -8 -5 -11 -10 -8 -6 4 -27 -7 -48 -23 -21 -17 -54
-38 -74 -48 -35 -16 -38 -16 -62 0 -14 9 -26 21 -26 27 0 20 22 54 62 95 22
23 40 45 39 50 -1 4 5 9 12 10 8 1 27 9 43 18 21 13 23 16 8 13 -25 -5 -29 20
-3 28 19 6 34 46 16 42 -6 -1 -13 9 -15 22 -2 14 0 21 6 17 6 -4 13 -2 17 3 3
7 -16 9 -50 8 -30 -1 -55 1 -55 6 0 4 11 7 24 7 14 0 28 4 31 10 3 6 -1 7 -10
4 -32 -13 -120 6 -150 32 l-30 25 109 -5 c59 -3 111 -7 114 -10z m-223 -651
c88 -8 196 -19 240 -24 44 -5 83 -7 87 -4 5 2 32 -2 61 -11 28 -8 104 -24 167
-36 135 -25 589 -146 717 -191 189 -67 386 -150 563 -238 232 -116 229 -115
223 -91 -6 22 57 73 84 68 44 -8 19 -93 -31 -100 -18 -3 -17 -6 14 -22 90 -49
429 -272 550 -363 74 -55 202 -163 283 -239 131 -123 146 -139 127 -146 -13
-5 -18 -13 -14 -19 15 -25 -60 2 -102 36 -24 20 -49 34 -56 33 -7 -2 -12 2
-11 9 1 6 -19 28 -45 49 -26 21 -41 31 -35 23 7 -9 10 -19 6 -22 -7 -8 -39 34
-36 45 2 4 -4 5 -12 2 -9 -4 -18 2 -23 16 -7 19 -16 22 -65 24 -31 0 -57 -3
-57 -8 0 -5 -3 -6 -6 -3 -4 4 -1 14 7 24 8 10 9 14 2 10 -7 -5 -16 1 -23 12
-7 13 -7 22 0 26 23 14 5 35 -82 97 -51 35 -106 72 -121 82 l-28 17 7 -27 c6
-23 4 -26 -10 -21 -10 4 -22 7 -27 7 -5 0 -9 8 -9 18 0 13 2 14 9 3 6 -9 10
-10 16 -2 14 23 -5 39 -119 105 -64 36 -150 89 -192 116 -43 28 -79 48 -82 46
-2 -3 5 -17 17 -32 11 -15 21 -35 21 -45 0 -33 -75 -55 -86 -25 -3 8 -11 13
-18 10 -7 -3 -37 5 -67 16 -37 15 -49 17 -39 7 8 -8 42 -25 75 -37 138 -50
394 -208 490 -302 39 -37 76 -68 82 -68 7 0 27 9 45 20 69 42 128 9 114 -63
-4 -23 -3 -28 4 -17 8 12 10 11 10 -7 0 -14 6 -23 15 -23 19 0 20 -19 1 -26
-18 -7 43 -64 68 -64 9 0 19 -6 22 -14 3 -8 35 -34 72 -57 58 -37 208 -173
334 -302 28 -29 42 -37 58 -32 47 15 84 -29 73 -88 -6 -28 2 -37 95 -115 56
-47 112 -121 112 -148 0 -10 9 -27 19 -38 32 -35 190 -255 257 -358 43 -66 78
-108 109 -130 44 -31 55 -51 35 -63 -17 -11 -11 -35 19 -73 15 -20 34 -59 41
-87 15 -58 29 -89 37 -81 3 3 14 1 24 -4 21 -12 39 13 39 54 0 31 28 66 52 66
10 0 18 9 20 23 2 15 30 -31 91 -154 48 -97 87 -180 87 -183 0 -4 26 -64 59
-134 73 -159 148 -378 186 -547 38 -164 65 -330 49 -288 -3 7 -12 9 -21 6 -13
-5 -14 -3 -4 16 9 17 9 21 -1 19 -8 -2 -14 9 -16 29 -2 23 -7 30 -18 26 -8 -3
-14 -1 -14 5 0 16 -31 23 -44 9 -20 -20 -25 -75 -8 -82 10 -3 12 0 8 10 -3 9
0 15 9 15 8 0 15 -6 15 -13 0 -7 12 -18 28 -24 l27 -11 -30 0 c-16 -1 -51 3
-77 7 -40 7 -47 5 -51 -11 -6 -20 -48 -40 -60 -28 -5 4 -19 68 -32 142 -22
125 -34 182 -55 253 -51 169 -74 233 -153 435 -49 125 -257 543 -285 573 -11
12 -40 56 -65 97 -150 253 -456 662 -581 775 -98 90 -173 155 -201 177 -16 12
-91 80 -165 151 -283 270 -733 578 -1141 783 -297 148 -753 305 -1129 388
-140 31 -431 70 -636 87 -285 23 -787 1 -1069 -47 -390 -65 -791 -188 -1115
-339 -74 -35 -178 -84 -231 -108 -399 -186 -1033 -649 -1414 -1032 -83 -84
-195 -215 -289 -340 -37 -49 -140 -161 -228 -248 -89 -87 -158 -160 -154 -164
3 -3 1 -12 -5 -19 -7 -8 -7 -14 1 -19 8 -5 4 -12 -9 -22 -12 -8 -21 -23 -21
-33 0 -10 -5 -22 -10 -25 -16 -10 5 -38 28 -40 12 -1 26 9 36 27 15 24 15 27
2 22 -9 -3 -13 -10 -10 -15 3 -5 -2 -12 -11 -16 -22 -8 -40 19 -20 30 8 4 15
14 15 22 0 19 23 24 36 7 9 -12 14 -9 32 19 12 19 22 30 22 26 0 -17 -103
-176 -111 -171 -4 2 -13 -5 -19 -17 -8 -15 -9 -19 -1 -15 6 4 11 5 11 2 0 -3
-44 -94 -99 -203 -144 -290 -196 -406 -223 -502 -7 -25 -12 -30 -18 -20 -5 8
-5 16 0 19 6 4 5 19 -2 38 -11 27 -17 32 -46 32 -19 0 -31 -4 -27 -10 3 -6 -1
-7 -9 -4 -9 3 -27 -4 -42 -15 -33 -26 -45 -27 -38 -3 5 14 4 14 -6 -2 -10 -14
-10 -20 1 -26 10 -7 10 -13 1 -32 l-12 -23 6 25 c5 18 3 22 -5 15 -16 -16 -67
-191 -118 -410 -113 -481 -123 -553 -130 -955 -7 -411 18 -807 67 -1050 59
-291 173 -723 205 -775 7 -11 15 -36 19 -55 5 -33 5 -33 -5 -7 -8 19 -18 27
-35 27 -41 0 -62 31 -93 136 -120 408 -196 803 -233 1204 -16 183 -17 674 0
845 63 651 206 1182 450 1670 273 547 544 917 1022 1395 225 226 317 303 528
447 26 18 74 52 107 76 91 67 326 216 455 289 434 247 946 447 1455 569 155
36 423 77 660 98 159 15 627 12 800 -4z m2315 -260 c26 -14 30 -21 30 -58 0
-57 -27 -87 -77 -87 -48 0 -73 24 -73 69 1 39 13 61 45 79 27 15 41 15 75 -3z
m-2468 -155 c534 -37 1047 -155 1533 -355 252 -103 392 -180 695 -380 235
-155 314 -214 477 -359 109 -95 434 -408 414 -398 -3 1 -11 -8 -19 -20 -11
-19 -12 -19 -7 -3 5 15 3 17 -5 9 -17 -17 -2 -54 20 -54 10 0 22 -5 26 -11 4
-8 10 -6 17 6 9 17 11 17 25 -1 14 -18 14 -18 9 4 -3 12 -4 22 -2 22 8 0 257
-303 321 -390 104 -141 143 -200 249 -381 101 -170 149 -260 120 -224 -9 11
-32 25 -53 30 -29 9 -37 16 -36 33 0 12 -5 22 -13 22 -7 0 -13 9 -13 20 0 31
-18 24 -64 -25 -41 -45 -42 -45 -40 -119 1 -56 6 -81 21 -102 11 -16 41 -78
67 -139 53 -124 85 -187 85 -165 0 8 -4 24 -8 35 -6 13 -3 31 7 50 8 17 18 37
22 45 8 18 58 26 72 12 17 -17 -1 -49 -33 -62 -22 -10 -27 -15 -17 -21 10 -7
10 -9 0 -9 -18 0 -31 -41 -21 -68 6 -15 5 -21 -1 -17 -14 9 -13 2 14 -58 14
-33 38 -65 63 -85 48 -38 59 -62 72 -167 6 -48 15 -83 24 -90 10 -7 13 -21 10
-38 -4 -20 -1 -27 10 -27 15 0 27 -20 27 -44 0 -7 -10 -18 -22 -24 -13 -6 -17
-11 -9 -11 11 -1 10 -6 -2 -25 -15 -23 -13 -71 3 -61 4 3 10 -9 12 -26 3 -16
0 -33 -5 -36 -6 -3 -7 -1 -3 5 5 8 -2 12 -18 12 -27 0 -32 -18 -18 -68 7 -22
7 -22 19 6 8 17 21 28 35 29 22 2 23 2 3 -13 -12 -9 -20 -27 -21 -49 -1 -34 0
-35 18 -18 16 15 18 15 13 1 -4 -11 0 -18 12 -21 14 -4 14 -5 -4 -6 -30 -1
-29 -23 2 -38 24 -11 25 -10 25 20 0 31 1 32 45 32 41 0 44 1 39 22 -5 19 -2
23 17 23 19 0 21 -2 9 -10 -13 -9 -13 -10 1 -10 8 0 19 4 25 9 5 5 26 12 47
15 28 5 37 4 37 -7 0 -8 2 -30 5 -48 3 -24 2 -27 -3 -11 -4 13 -10 23 -14 23
-5 -1 -15 -1 -24 -1 -8 0 -12 -5 -9 -10 3 -6 -2 -13 -12 -17 -30 -11 -43 -36
-38 -73 2 -19 9 -71 15 -115 9 -75 2 -188 -15 -215 -3 -5 -20 -10 -36 -10 -22
0 -32 7 -41 25 -6 14 -18 25 -25 25 -25 0 -53 -20 -54 -38 -2 -42 -20 55 -34
183 -8 77 -17 156 -20 175 -4 29 -3 31 4 10 9 -25 9 -25 9 5 0 17 -4 41 -8 55
-8 25 -8 25 -9 -4 -2 -48 -12 -23 -27 66 -14 77 -50 240 -75 332 -8 28 -13 36
-22 27 -19 -19 -49 -12 -76 17 -29 31 -66 51 -57 30 25 -61 88 -274 97 -327 6
-36 19 -113 29 -171 31 -172 39 -244 50 -467 11 -200 9 -296 -15 -733 -2 -47
-2 -77 1 -67 9 29 24 19 24 -18 0 -19 -4 -35 -10 -35 -5 0 -10 7 -10 15 0 8
-4 15 -9 15 -14 0 -20 -163 -6 -176 9 -9 9 -27 2 -69 -9 -45 -15 -59 -34 -66
-13 -5 -23 -10 -23 -12 0 -16 -73 -316 -89 -362 -39 -120 -194 -479 -250 -580
-18 -33 -51 -93 -73 -133 -28 -51 -45 -72 -55 -68 -8 3 -32 -3 -54 -13 l-40
-20 22 37 c13 20 39 62 60 92 49 74 117 213 167 340 75 191 92 238 92 254 0 9
16 58 35 110 42 112 105 352 105 401 0 25 -10 46 -40 80 -38 44 -51 75 -31 75
5 0 27 -7 50 -15 53 -18 54 -17 76 155 21 169 25 689 7 890 -46 493 -192 995
-415 1420 -68 130 -251 433 -301 499 -23 29 -57 75 -76 101 -139 189 -386 444
-630 650 -358 302 -782 555 -1210 723 -294 116 -490 171 -815 232 l-199 38
-26 -30 c-45 -53 -114 -50 -108 5 l3 27 -90 8 c-126 12 -599 0 -725 -17 -233
-32 -270 -39 -385 -67 -672 -168 -1263 -473 -1821 -942 -119 -100 -391 -379
-486 -498 -343 -430 -602 -928 -736 -1409 -45 -162 -92 -417 -92 -497 0 -29
-4 -53 -10 -53 -5 0 -10 -24 -10 -54 0 -30 -7 -116 -16 -193 -9 -76 -17 -240
-18 -365 -2 -126 -6 -231 -9 -235 -4 -3 -7 2 -7 11 0 13 -5 16 -18 11 -36 -15
-48 -15 -67 -1 -19 14 -20 26 -20 223 0 114 4 217 9 228 5 11 10 28 11 37 1
10 10 26 19 37 22 25 18 67 -7 63 -9 -2 -17 3 -17 11 0 46 76 397 130 603 17
64 29 121 27 127 -3 7 -9 -4 -14 -23 -12 -44 -53 -71 -77 -51 -9 7 -16 28 -17
45 l-1 31 -14 -32 c-35 -81 -116 -489 -138 -698 -49 -463 -47 -677 8 -1005 19
-118 41 -246 47 -285 31 -198 199 -634 302 -785 27 -38 137 -268 137 -285 0
-3 -4 -3 -10 0 -6 4 -6 -3 0 -21 6 -15 8 -35 5 -45 -4 -11 -2 -19 4 -19 6 0
10 -3 9 -7 0 -5 2 -16 6 -25 6 -13 11 -15 21 -5 7 6 11 19 8 27 -2 8 3 2 13
-15 17 -30 27 -95 13 -95 -12 0 -122 176 -213 342 -47 87 -86 160 -86 162 0 3
-38 88 -85 190 -47 101 -85 194 -85 205 0 25 3 25 -45 1 -45 -23 -81 -26 -88
-7 -8 22 5 37 47 59 22 11 42 21 43 23 2 1 -4 25 -12 53 -14 45 -18 51 -34 43
-10 -6 -53 -20 -96 -31 -68 -18 -85 -19 -127 -10 -82 20 -95 55 -118 305 -39
423 -32 893 20 1370 33 300 46 376 96 580 87 349 133 482 265 774 170 378 371
689 662 1025 367 425 468 528 692 708 55 44 122 101 149 125 28 25 66 53 85
61 20 9 81 47 136 83 165 110 231 148 425 243 329 163 509 232 949 366 375
114 939 170 1393 140z m3448 -132 c30 -22 38 -38 20 -38 -15 0 -90 -49 -88
-58 9 -45 -86 -55 -162 -17 -25 13 -54 30 -65 38 -19 15 -18 15 17 12 21 -2
46 -6 56 -9 11 -4 37 6 67 25 48 30 117 69 123 69 1 0 16 -10 32 -22z m474
-420 c-3 -5 -1 -7 4 -6 12 4 96 -72 88 -79 -3 -4 -1 -12 5 -19 6 -8 9 -20 6
-28 -4 -10 -1 -13 9 -9 18 7 18 12 -3 35 -9 10 -12 18 -7 18 14 0 46 -39 40
-49 -3 -4 10 -23 29 -41 19 -18 32 -36 30 -40 -2 -4 3 -7 11 -7 10 0 6 9 -13
29 -15 15 -23 27 -17 27 5 -1 38 -33 74 -73 36 -39 55 -63 43 -53 -14 12 -23
15 -28 8 -10 -16 -28 -13 -22 3 4 10 1 13 -8 9 -8 -3 -12 -9 -9 -14 9 -16 -8
-10 -25 9 -9 9 -24 18 -34 20 -14 2 -16 -2 -12 -20 3 -13 6 -32 8 -43 1 -11 6
-26 11 -33 5 -9 2 -20 -8 -30 -15 -15 -13 -19 17 -51 48 -53 -63 52 -190 178
-61 61 -108 111 -103 111 15 0 43 74 43 113 0 35 2 38 23 34 30 -5 30 9 2 42
-19 22 -17 21 9 -3 18 -16 30 -33 27 -38z m-4746 -594 l3 -30 132 13 c132 13
202 8 234 -19 8 -6 81 -4 225 7 117 9 279 16 361 15 139 -1 147 0 147 19 0 14
9 21 35 25 44 9 58 0 51 -30 -5 -19 -2 -24 16 -28 57 -11 149 -27 213 -37 39
-5 106 -19 150 -31 44 -11 105 -20 135 -19 81 2 444 -80 514 -116 43 -22 146
-124 146 -145 0 -10 8 -36 17 -59 14 -37 15 -52 5 -110 -17 -99 -30 -279 -36
-483 l-4 -179 42 -46 c41 -44 49 -59 78 -160 7 -25 18 -46 23 -48 7 -2 19 38
29 94 10 54 23 122 28 152 11 60 41 135 57 145 7 5 7 13 1 24 -9 16 -29 529
-21 537 2 3 23 -9 47 -26 34 -23 44 -36 44 -58 0 -30 31 -69 66 -86 24 -11
104 -81 104 -91 0 -17 45 -94 54 -94 6 0 4 -4 -4 -10 -11 -7 -9 -11 13 -19 16
-6 27 -18 27 -29 0 -10 5 -23 10 -28 6 -6 12 -30 13 -52 1 -23 4 -42 8 -42 10
0 -13 -84 -25 -92 -7 -5 -7 -8 2 -8 7 0 23 -11 35 -24 12 -13 43 -29 67 -36
87 -23 131 -93 129 -203 -1 -36 -5 -71 -10 -78 -6 -10 -9 -11 -9 -1 0 23 -26
12 -45 -20 -22 -37 -25 -53 -13 -85 4 -14 4 -23 -3 -23 -5 0 -13 -8 -16 -17
-10 -28 -55 -97 -72 -110 -13 -11 -11 -13 11 -13 36 0 42 -13 19 -41 -17 -21
-20 -22 -34 -7 -9 9 -14 18 -11 21 3 3 1 8 -5 12 -6 3 -11 0 -11 -7 -1 -33
-220 -132 -395 -179 -104 -28 -271 -52 -287 -42 -5 2 -8 35 -8 74 0 54 -3 69
-15 69 -8 0 -19 9 -25 20 -11 21 -8 25 35 33 11 2 18 9 16 18 -2 8 -8 57 -13
109 -5 52 -15 118 -23 145 -14 50 -69 126 -106 145 -26 15 -224 29 -614 45
-536 22 -2354 2 -2461 -28 -99 -26 -155 -93 -189 -224 -21 -80 -18 -136 10
-228 14 -44 28 -104 31 -132 8 -60 12 -58 -86 -43 -123 19 -216 44 -305 82
-38 16 -79 33 -90 37 -11 4 -50 22 -88 39 -78 37 -93 39 -127 15 -14 -10 -62
-36 -107 -59 l-82 -41 -7 64 c-3 35 -5 121 -2 191 4 124 4 129 40 192 36 64
70 107 99 126 7 5 52 49 99 97 83 85 84 88 82 133 -6 137 41 -96 63 -311 17
-168 24 -201 41 -199 12 1 102 180 115 229 6 22 18 56 27 75 14 28 18 76 22
249 l5 215 99 74 98 75 -48 16 c-41 13 -52 22 -68 58 -16 33 -26 43 -53 48
-31 6 -33 8 -33 49 0 40 2 44 29 49 18 4 36 18 48 39 37 62 125 158 167 182
22 14 120 46 216 72 226 62 262 62 390 6 52 -23 98 -42 103 -42 4 0 41 32 83
70 83 77 131 106 193 116 31 5 41 11 41 25 0 32 37 61 73 57 28 -3 32 -7 35
-34z m2497 -112 c11 -30 27 -486 23 -713 l-3 -235 -35 -49 c-19 -26 -41 -50
-48 -53 -10 -3 -11 103 -6 530 3 293 7 539 9 545 5 17 51 -3 60 -25z m-3927
-507 c3 -303 0 -475 -6 -475 -5 0 -43 42 -83 92 l-74 93 1 270 c1 169 5 291
13 327 11 52 17 60 79 111 37 31 67 56 67 56 0 1 2 -213 3 -474z m4523 48
c186 -190 283 -316 339 -437 41 -90 46 -104 48 -139 1 -10 7 -15 12 -12 7 4 8
-3 4 -21 -5 -18 -3 -25 4 -20 12 7 23 -25 51 -149 17 -74 22 -152 31 -443 5
-194 10 -483 10 -641 l0 -288 -41 -59 c-42 -60 -166 -207 -179 -212 -4 -1 -13
26 -20 60 -10 48 -12 211 -11 678 2 610 4 656 37 768 4 14 2 22 -5 22 -7 0
-10 4 -7 9 3 5 3 37 -1 71 -3 34 -9 57 -12 51 -4 -6 -7 6 -7 27 0 20 -5 73
-11 117 -11 82 -8 108 9 84 6 -9 8 2 4 34 -7 60 -39 123 -66 130 -12 3 -24 16
-28 29 -17 65 -133 241 -269 411 -35 43 -63 80 -63 83 0 13 64 -44 171 -153z
m-4932 75 c-88 -219 -119 -327 -159 -538 -17 -91 -39 -201 -50 -245 -22 -88
-26 -227 -10 -316 5 -30 14 -193 20 -364 41 -1151 40 -1100 11 -1264 -11 -62
-23 -116 -26 -120 -4 -3 -11 3 -17 14 -13 21 -62 78 -156 178 l-65 68 7 47 c4
26 9 243 11 482 5 529 13 827 25 981 13 159 64 397 137 639 24 82 77 200 89
200 3 0 3 -8 -1 -17 -16 -38 -35 -143 -49 -268 -17 -154 -29 -448 -15 -370 5
28 16 79 24 115 8 36 24 128 35 205 37 256 100 480 162 578 40 62 53 60 27 -5z
m7064 -110 c25 -33 17 -69 -23 -109 -56 -56 -138 -25 -127 48 14 84 106 121
150 61z m765 -450 c46 -95 53 -116 39 -122 -7 -2 -3 -5 9 -5 21 -1 39 -34 79
-140 15 -42 15 -45 -3 -64 -18 -17 -23 -18 -48 -5 -16 7 -37 30 -47 51 -9 20
-21 37 -26 37 -5 0 -14 15 -20 33 -10 28 -9 34 9 49 11 9 20 23 20 31 0 16
-39 65 -41 51 -2 -17 -17 41 -18 70 -1 23 2 27 17 21 14 -5 15 -4 5 6 -12 12
-18 49 -9 49 2 0 17 -28 34 -62z m-7467 -35 l42 -16 -6 -72 c-11 -122 -62
-301 -79 -272 -14 25 -23 377 -10 377 6 0 30 -7 53 -17z m2588 -313 c285 -17
252 -37 -64 -39 -128 -2 -224 -7 -265 -16 l-65 -14 71 5 71 6 6 -63 c4 -34 7
-77 7 -95 0 -19 2 -34 4 -34 2 0 38 6 80 14 201 39 696 45 696 10 0 -47 -224
-57 -1160 -53 -437 2 -934 2 -1105 1 -308 -3 -310 -3 -327 18 -12 15 -18 39
-18 72 0 41 5 53 28 75 41 39 76 50 197 62 223 22 1043 54 1535 59 74 1 213
-3 309 -8z m926 -51 c82 -15 149 -100 143 -181 l-3 -41 -105 2 c-58 1 -131 4
-162 7 -49 6 -56 9 -49 23 5 9 12 42 16 74 11 86 -3 96 -195 131 -14 2 49 2
140 -1 91 -3 187 -9 215 -14z m-4639 -49 c0 0 4 -201 8 -447 8 -482 14 -594
34 -601 18 -6 15 -39 -7 -70 -16 -22 -21 -51 -26 -147 -4 -82 -3 -115 4 -105
15 22 19 2 25 -130 6 -161 35 -592 41 -610 2 -8 9 -134 15 -280 l12 -265 -42
-120 c-45 -130 -89 -235 -99 -235 -3 0 -26 62 -51 138 -45 136 -45 138 -45
277 1 127 10 248 47 630 7 72 13 221 13 333 0 111 4 202 9 202 12 0 1 154 -15
210 -7 25 -18 52 -25 60 -24 28 -55 110 -50 128 16 48 39 311 66 752 5 85 12
187 16 226 l6 72 32 -9 c17 -5 31 -9 32 -9z m6489 -247 c7 -72 26 -140 43
-153 4 -3 13 -17 19 -32 9 -19 20 -28 35 -28 13 0 33 -8 46 -18 19 -15 23 -26
20 -58 -2 -33 -7 -39 -26 -40 -33 -2 -36 -7 -44 -87 -9 -91 -8 -328 1 -272 l7
40 7 -55 c3 -30 9 -172 13 -315 4 -143 8 -282 9 -310 1 -27 5 -58 10 -68 14
-34 -4 -122 -47 -217 l-42 -95 3 -161 c2 -136 0 -162 -13 -173 -14 -11 -16
-11 -16 5 0 17 -1 17 -15 -2 -8 -10 -15 -17 -16 -14 -1 3 -5 95 -9 205 -5 143
-12 219 -25 265 -17 61 -17 109 -11 716 4 358 11 702 16 765 5 63 10 129 10
147 0 63 18 31 25 -45z m-2572 -75 c24 -19 228 -299 283 -390 46 -77 47 -79
35 -120 l-13 -41 -28 49 c-16 27 -54 81 -85 119 -31 39 -84 108 -116 155 -33
47 -86 117 -118 155 -33 39 -57 73 -54 78 7 12 78 8 96 -5z m785 -11 c0 -7 6
-70 12 -142 11 -123 7 -431 -6 -552 -5 -46 -4 -53 11 -53 12 0 15 -5 11 -16
-3 -9 -6 -20 -6 -25 0 -5 -5 -8 -12 -6 -8 1 -16 -30 -24 -98 -33 -275 -68
-428 -160 -702 -41 -123 -86 -222 -162 -360 -83 -151 -97 -129 -21 33 31 66
81 197 179 474 11 32 75 346 94 465 20 128 25 203 37 619 5 204 12 373 15 377
7 11 30 1 32 -14z m-2188 6 c0 -5 -39 -51 -86 -103 -47 -52 -124 -143 -172
-202 -61 -75 -98 -111 -124 -122 -55 -23 -257 -76 -261 -68 -2 4 -2 116 1 249
l4 243 187 3 c102 1 246 3 319 5 72 1 132 -1 132 -5z m1104 -12 c9 -7 13 -17
10 -22 -3 -5 3 -12 13 -15 10 -3 26 -10 36 -15 9 -5 17 -6 17 -2 0 5 16 9 35
10 36 2 70 24 57 39 -4 4 10 -6 31 -22 37 -28 196 -226 309 -386 85 -120 85
-131 7 -338 l-40 -105 -57 -23 c-31 -13 -87 -34 -124 -47 -37 -14 -83 -34
-103 -45 -34 -19 -35 -19 -35 0 0 10 -5 22 -12 26 -8 5 -9 2 -5 -11 7 -17 6
-17 -20 0 -16 10 -44 30 -63 45 -73 56 -281 188 -350 221 l-71 34 6 110 c3 61
8 207 11 325 3 118 8 221 10 229 6 19 314 12 338 -8z m-418 -83 c-8 -113 -26
-477 -26 -536 0 -36 -4 -44 -24 -52 -51 -19 -217 -129 -370 -244 l-158 -120
-59 13 c-32 6 -86 20 -119 31 -34 11 -79 24 -100 30 -37 10 -38 12 -45 63 -3
28 -13 88 -20 132 -8 44 -21 130 -31 191 l-17 111 24 48 c39 79 271 335 304
335 4 0 24 18 45 40 l38 40 219 3 c120 1 247 3 282 5 l64 2 -7 -92z m-2274 18
c35 -13 97 -38 138 -54 88 -36 236 -75 375 -100 l100 -18 0 -94 0 -95 -25 3
c-48 6 -275 63 -335 84 -77 26 -85 34 -57 54 32 22 15 38 -55 54 -54 12 -145
39 -185 55 -16 6 -18 1 -18 -46 0 -174 67 -502 167 -819 57 -183 90 -264 163
-411 114 -228 195 -335 561 -748 86 -97 180 -198 209 -226 47 -45 170 -198
170 -211 0 -3 -26 -4 -57 -2 -55 3 -58 5 -61 30 -2 20 -61 83 -228 247 -124
122 -229 221 -233 221 -20 0 -316 357 -398 480 -128 190 -250 487 -333 805
-45 175 -55 227 -75 395 -17 143 -19 247 -5 305 9 42 76 115 104 115 8 0 43
-11 78 -24z m4640 -13 c47 -51 52 -71 58 -231 3 -83 2 -152 -1 -152 -3 0 -4
-11 -1 -25 2 -14 0 -25 -5 -25 -5 0 -9 -24 -9 -52 1 -64 -13 -136 -22 -121 -4
6 -7 -13 -7 -43 0 -31 -5 -58 -12 -62 -12 -8 -28 -74 -25 -107 1 -12 -1 -14
-4 -7 -9 20 -35 -42 -73 -173 -61 -203 -152 -406 -268 -594 -86 -140 -138
-206 -251 -323 -77 -80 -93 -102 -89 -120 7 -24 -49 -81 -258 -263 -49 -43
-133 -121 -186 -172 -68 -66 -101 -91 -113 -87 -9 3 -16 14 -16 23 0 9 130
144 289 301 363 357 467 493 603 779 121 257 219 568 262 831 8 52 23 140 31
195 9 55 19 148 22 208 7 125 17 118 -124 86 -85 -20 -93 -23 -93 -45 0 -20 5
-24 31 -24 18 0 28 -4 24 -10 -12 -20 -121 -68 -200 -88 -44 -12 -105 -28
-135 -36 -30 -8 -71 -16 -90 -18 l-35 -3 -3 113 -3 112 71 0 c81 0 183 13 285
37 70 16 271 95 289 113 16 16 31 12 58 -17z m-4479 -297 c56 -24 185 -72 287
-106 102 -34 191 -68 199 -75 8 -8 16 -40 19 -72 3 -40 11 -65 25 -80 11 -13
15 -23 9 -23 -7 0 -12 5 -12 10 0 6 -5 10 -11 10 -7 0 -10 -36 -8 -107 l3
-107 -35 -3 c-204 -20 -337 -50 -331 -73 2 -8 -3 -10 -13 -7 -8 4 -15 1 -16
-6 -2 -35 -10 -53 -28 -66 -12 -7 -21 -21 -22 -30 0 -10 -4 -7 -10 8 -5 13 -7
26 -4 29 3 3 5 -1 5 -9 0 -12 2 -12 9 0 13 20 2 44 -13 31 -15 -12 -47 81
-102 295 -41 162 -78 425 -58 425 3 0 51 -20 107 -44z m7734 17 c-26 -125 -46
-188 -67 -214 -29 -36 -60 -32 -60 8 0 37 40 122 60 128 15 5 17 13 13 40 -6
40 9 65 39 65 17 0 19 -5 15 -27z m-3452 -243 c-60 -417 -130 -642 -309 -999
-98 -196 -213 -346 -414 -542 -92 -90 -187 -180 -211 -199 l-44 -34 6 152 6
152 39 68 c49 82 156 322 182 406 107 344 160 621 184 957 7 100 10 105 54
107 36 2 276 72 437 129 l80 28 3 -55 c2 -30 -4 -107 -13 -170z m-3231 -37
c49 -242 59 -287 73 -316 15 -30 10 -47 -12 -47 -26 0 -183 -203 -283 -367
-35 -55 -68 -106 -75 -111 -10 -9 -19 15 -39 106 -23 100 -47 263 -32 208 3
-10 30 -59 60 -108 30 -49 54 -93 54 -98 0 -25 17 -5 38 44 23 53 23 54 7 132
-9 44 -23 131 -31 194 -47 358 -53 434 -34 445 5 3 44 13 87 22 43 8 94 19
113 23 19 4 37 8 40 9 3 0 18 -61 34 -136z m2143 36 c-20 -74 -35 -169 -42
-264 -6 -85 7 -140 54 -234 12 -23 21 -49 19 -58 -2 -8 -19 23 -38 68 -19 45
-49 111 -66 146 l-31 63 28 83 c14 45 39 121 54 170 30 95 45 113 22 26z
m-829 -241 c156 -104 266 -190 270 -212 7 -32 -64 -248 -117 -361 -42 -87 -66
-114 -206 -225 l-90 -72 -55 6 c-30 4 -109 20 -175 37 -179 45 -197 50 -193
54 2 2 28 -2 58 -10 76 -20 95 -18 36 5 -82 32 -90 46 -120 205 l-13 70 81 85
81 85 -80 -78 c-44 -42 -84 -77 -88 -77 -4 0 -7 8 -7 18 -1 9 -8 1 -16 -18 -8
-19 -13 -43 -10 -52 2 -10 0 -16 -4 -13 -5 3 -11 -3 -13 -12 -4 -15 -5 -15 -5
2 -1 24 26 147 27 126 1 -8 4 -12 7 -8 3 3 -10 30 -30 60 -20 30 -36 61 -36
71 0 9 -5 16 -11 16 -22 0 16 -229 60 -363 20 -62 33 -85 51 -94 14 -7 23 -13
20 -14 -3 0 -18 -2 -35 -3 -16 -1 -37 -4 -44 -7 -11 -3 -18 9 -24 41 -12 57
-84 363 -97 411 -6 20 -10 46 -10 57 0 29 268 242 430 343 l123 76 59 -36 c33
-20 112 -71 176 -113z m-5624 -100 c33 -47 6 -128 -43 -128 -63 0 -106 86 -64
132 24 27 87 24 107 -4z m6370 -99 c84 -176 88 -191 90 -306 1 -85 -2 -105
-16 -119 -21 -21 -28 -16 -38 28 l-8 33 -1 -40 c-2 -51 -35 -123 -102 -216
-29 -41 -56 -78 -60 -82 -8 -10 -54 12 -114 53 -22 15 -98 58 -168 95 -70 37
-127 69 -127 71 0 2 15 52 34 111 81 253 101 319 101 343 0 22 13 29 170 87
94 34 173 62 176 62 3 1 32 -54 63 -120z m-1765 -29 l144 -47 19 -64 c10 -35
23 -80 28 -99 11 -36 64 -262 75 -316 6 -29 0 -35 -120 -138 -69 -59 -132
-109 -139 -112 -13 -5 -195 118 -286 194 -30 25 -87 79 -127 120 l-72 73 43
74 c24 40 85 128 137 196 51 67 99 136 107 151 10 21 19 27 31 22 9 -4 81 -28
160 -54z m3663 -101 c-4 -46 -5 -282 -2 -524 3 -242 3 -526 0 -631 l-5 -192
-59 43 -59 42 2 169 c0 93 4 379 7 636 l7 467 23 22 c13 12 37 22 54 23 22 1
30 6 30 20 0 11 2 17 5 14 3 -3 2 -43 -3 -89z m-6707 -307 c5 -57 12 -85 21
-89 16 -6 19 -39 4 -48 -14 -8 -12 -87 3 -160 9 -40 15 -54 20 -42 7 18 42 23
52 7 4 -6 -8 -24 -25 -42 -36 -35 -36 -26 6 -238 62 -310 124 -508 227 -730
19 -41 37 -84 41 -95 7 -25 105 -89 196 -130 90 -40 100 -50 86 -80 l-11 -24
-25 24 c-14 13 -50 33 -80 45 -30 12 -70 30 -88 41 l-33 19 6 -22 c4 -13 23
-59 42 -103 20 -44 46 -106 59 -138 36 -91 2 -49 -42 51 -21 48 -53 114 -72
147 -94 172 -159 316 -247 550 -110 291 -175 552 -205 820 -10 90 -13 461 -3
438 7 -18 23 -16 23 2 0 8 5 15 10 15 6 0 11 37 12 88 1 65 3 47 8 -68 4 -85
11 -192 15 -238z m7390 308 c15 -21 32 -58 40 -82 13 -44 32 -328 22 -328 -24
0 -33 14 -29 46 8 68 -17 196 -49 246 -17 25 -36 51 -43 58 -15 12 -31 94 -21
110 10 16 53 -10 80 -50z m-5315 30 c0 -15 -42 -61 -68 -74 -37 -18 -132 -30
-132 -16 0 6 -4 8 -10 5 -5 -3 -10 -4 -10 -1 0 2 -3 11 -6 20 -4 11 -1 16 10
16 9 0 16 6 16 13 0 19 41 41 90 47 53 6 110 1 110 -10z m6055 -195 c3 -22 12
-80 20 -130 42 -273 39 -553 -9 -740 -14 -55 -37 -165 -51 -245 -19 -106 -32
-154 -50 -180 -13 -19 -31 -69 -40 -112 -9 -42 -25 -102 -35 -135 -15 -51 -21
-58 -43 -58 -29 -1 -51 -15 -24 -15 19 0 20 -2 11 -24 -3 -9 -10 -14 -14 -11
-5 3 -15 -1 -23 -9 -8 -8 -17 -13 -19 -10 -6 5 34 121 63 180 20 43 42 114 59
199 6 28 16 70 21 95 103 451 124 630 114 1010 -4 172 -3 250 4 240 5 -8 13
-33 16 -55z m-574 -556 c-13 -167 -39 -321 -58 -332 -7 -4 -13 -20 -13 -35 0
-38 -33 -166 -60 -232 -12 -30 -41 -111 -65 -180 -46 -133 -81 -220 -89 -220
-3 0 -1 12 5 27 7 19 7 29 0 31 -30 10 9 185 55 248 48 67 70 122 56 144 -10
16 -6 33 19 95 21 55 32 104 39 178 5 56 19 138 30 182 28 110 49 297 56 505
3 96 8 182 12 190 13 32 24 -464 13 -601z m-1325 590 c4 -8 9 -7 15 2 7 11 9
9 9 -6 0 -15 2 -17 9 -6 6 9 10 10 16 2 4 -7 2 -18 -5 -26 -7 -9 -8 -15 0 -20
5 -3 10 -1 10 4 0 6 5 11 11 11 6 0 4 -9 -4 -21 -13 -18 -12 -23 10 -45 13
-13 28 -24 33 -24 13 0 13 -41 0 -60 -8 -13 -13 -13 -31 -2 -11 8 -19 10 -17
5 30 -62 30 -62 45 -47 8 8 20 14 26 14 7 0 6 -4 -3 -10 -14 -9 -7 -14 15 -11
6 1 2 -5 -8 -13 -14 -11 -15 -19 -7 -40 5 -14 14 -26 20 -26 18 0 11 -17 -11
-26 -20 -9 -20 -11 -6 -26 12 -12 13 -18 4 -27 -9 -9 -8 -11 6 -6 13 6 17 2
18 -16 1 -23 2 -21 15 20 6 18 35 -20 37 -48 2 -28 17 -14 17 15 0 15 -13 38
-30 56 -24 24 -28 33 -19 44 17 21 31 17 19 -6 -6 -11 -9 -20 -6 -20 2 0 13
-3 23 -7 16 -6 16 -5 4 10 -12 15 -11 17 3 17 9 0 16 -7 16 -16 0 -8 7 -23 16
-32 15 -14 16 -12 13 31 -2 26 -1 47 4 47 13 0 0 -231 -14 -244 -9 -8 -10 -8
-5 1 3 6 2 22 -3 35 -9 21 -10 19 -10 -14 -1 -21 4 -38 9 -38 6 0 10 -16 10
-36 0 -20 4 -33 10 -29 6 4 10 -80 12 -225 3 -202 1 -229 -12 -224 -93 40
-174 57 -290 61 l-125 5 0 457 0 456 23 35 c17 25 21 28 17 12 -4 -13 -1 -29
5 -37 7 -8 10 -26 8 -40 -6 -27 1 -32 19 -14 7 7 15 6 27 -6 19 -20 62 -29 71
-16 3 6 -10 26 -29 46 -21 21 -33 42 -29 50 3 8 0 15 -6 15 -6 0 -11 12 -11
26 0 14 4 23 10 19 6 -3 13 1 16 9 7 19 20 21 30 5z m-5252 -147 c6 -42 7
-533 3 -1787 l-2 -860 -22 -3 c-17 -3 -23 -10 -23 -30 0 -16 -4 -22 -9 -16 -8
7 -18 200 -23 449 -4 161 6 1374 11 1371 3 -2 8 199 9 448 3 273 8 456 14 463
16 20 36 3 42 -35z m-2488 -13 c5 -8 9 -8 14 1 13 21 38 -328 26 -373 -8 -35
-44 -52 -138 -67 -93 -15 -192 -9 -237 15 -33 17 -33 17 -29 80 6 92 14 99
243 197 39 16 76 36 84 43 7 7 13 35 14 64 0 49 8 63 23 40z m2815 -840 c6
-240 9 -449 5 -465 -7 -28 -7 -28 8 -9 26 33 20 -4 -12 -79 -28 -66 -42 -75
-42 -28 0 13 -17 54 -37 90 l-38 67 2 125 c2 69 8 184 14 255 6 72 15 245 20
385 9 240 13 318 17 365 2 17 4 18 12 5 7 -11 10 4 11 50 3 134 28 -341 40
-761z m1332 680 c116 -128 204 -199 314 -257 59 -30 73 -42 73 -60 0 -58 101
-305 144 -352 12 -14 38 -52 56 -85 18 -33 41 -73 50 -90 71 -127 111 -205
105 -205 -27 0 -221 156 -352 283 -204 199 -311 319 -373 421 -72 120 -169
318 -175 357 -5 30 -2 28 23 -21 52 -103 192 -299 281 -392 39 -42 51 -47 51
-19 0 22 -25 45 -39 37 -5 -4 -13 -1 -17 5 -5 8 -3 9 6 4 9 -6 12 1 8 27 -3
33 12 64 26 51 3 -3 -9 20 -26 53 -34 62 -143 208 -213 284 -53 58 -73 84 -59
79 6 -2 59 -56 117 -120z m3389 -710 c-4 -4 -25 -9 -47 -12 l-40 -6 3 322 3
322 37 89 37 88 7 -398 c3 -220 3 -402 0 -405z m-1792 753 c0 -5 24 -22 53
-37 74 -40 299 -188 315 -208 16 -19 6 -41 -14 -33 -20 7 -248 171 -308 220
-36 30 -51 37 -54 26 -3 -7 -19 -27 -36 -43 -28 -27 -29 -28 -4 -12 27 16 27
16 71 -24 45 -41 94 -124 117 -194 11 -35 9 -43 -23 -111 -36 -76 -130 -182
-189 -212 -26 -14 -225 -36 -240 -27 -5 2 -8 14 -8 26 0 12 -11 78 -24 147
-13 69 -26 157 -27 195 -4 68 -3 70 21 73 23 4 149 87 235 157 61 49 115 76
115 57z m-690 -125 c69 -23 153 -51 188 -61 l62 -17 0 -52 c0 -29 14 -133 30
-231 16 -99 27 -182 25 -185 -8 -7 -507 -1 -545 7 -21 5 -39 17 -46 30 -9 19
-13 20 -17 8 -12 -32 -35 -15 -62 47 -15 34 -33 76 -41 92 -40 91 -61 155 -54
160 5 3 22 -20 38 -52 16 -32 39 -74 50 -93 12 -19 33 -55 46 -80 14 -25 25
-41 26 -36 0 5 -26 59 -59 120 -32 61 -61 121 -65 133 -6 18 14 40 126 142
100 92 138 121 153 117 11 -3 76 -25 145 -49z m2345 -94 c-2 -10 -6 -143 -9
-297 l-5 -278 -51 -24 c-71 -33 -167 -104 -229 -169 -29 -30 -53 -55 -54 -55
-1 0 -1 91 1 202 l3 202 37 45 c20 26 39 48 42 51 32 28 236 283 247 307 14
36 23 43 18 16z m-4082 -65 l54 -73 4 -365 c8 -741 7 -789 -25 -929 l-29 -123
11 -185 c10 -174 10 -188 -9 -236 -29 -78 -38 -89 -40 -47 -13 368 -21 667
-23 797 l-1 162 -33 34 c-31 32 -52 81 -52 121 0 16 6 18 39 13 l38 -5 7 61
c8 79 6 659 -2 765 -4 45 -4 82 0 82 4 0 32 -33 61 -72z m-1859 -88 c19 -123
58 -284 99 -415 43 -136 125 -367 148 -422 19 -44 21 -56 10 -79 -10 -24 -16
-26 -51 -21 -33 4 -40 2 -41 -11 -1 -25 -96 269 -119 368 -44 191 -67 377 -73
608 -4 142 2 135 27 -28z m8642 -67 c-14 -319 -72 -668 -150 -905 -13 -40 -43
-134 -67 -208 -71 -226 -127 -342 -178 -369 -33 -18 -15 46 49 174 91 183 207
607 264 965 40 251 44 276 62 398 9 61 19 112 22 112 3 0 2 -75 -2 -167z
m-9666 113 c0 -8 16 -16 40 -20 35 -5 40 -10 45 -39 3 -17 1 -79 -4 -137 -4
-58 -9 -87 -10 -65 -1 32 -4 37 -12 23 -24 -41 -96 -4 -123 62 -20 50 -21 109
-2 116 7 3 22 21 32 40 19 35 34 44 34 20z m6010 -444 c-13 -51 -53 -91 -92
-92 -47 0 -37 46 35 166 l62 105 3 -68 c2 -38 -2 -87 -8 -111z m547 44 c-21
-31 -34 -200 -28 -341 l4 -70 7 55 c5 30 9 80 9 110 1 30 5 61 9 68 5 7 8 -41
6 -106 -1 -86 -6 -126 -17 -143 -27 -43 -76 -202 -87 -288 -14 -101 0 -226 37
-344 23 -74 23 -80 9 -120 -33 -89 -38 -136 -20 -189 21 -66 15 -128 -22 -202
l-29 -60 -7 215 c-3 118 -11 266 -17 329 -6 63 -11 304 -11 535 l0 420 82 77
c46 42 85 77 87 78 2 0 -4 -11 -12 -24z m-3256 -32 c20 -13 58 -51 84 -86 26
-35 53 -69 59 -77 9 -11 7 -13 -11 -7 -16 5 -25 2 -33 -14 -9 -16 -15 -19 -24
-10 -11 8 -15 5 -18 -14 -9 -45 31 -562 54 -716 7 -41 12 -167 12 -280 l1
-205 -48 -154 c-36 -118 -47 -170 -47 -221 0 -41 -5 -73 -14 -86 -14 -18 -15
-18 -20 6 -2 14 -7 69 -11 122 -6 108 -28 276 -50 383 -12 61 -12 91 1 230 8
88 17 318 21 510 5 317 4 352 -11 367 -48 49 -42 310 7 281 7 -3 28 -17 48
-29z m1739 26 c0 -6 -7 -55 -15 -110 -8 -54 -16 -138 -18 -185 -4 -92 -20
-131 -31 -73 -14 76 -36 266 -36 311 0 40 4 49 23 57 30 12 77 12 77 0z m-356
-16 c178 -7 178 -7 173 -30 -9 -50 33 -264 73 -365 11 -27 20 -54 20 -59 0 -9
-266 -5 -316 5 -14 3 -36 32 -68 92 -26 49 -78 131 -117 183 -71 95 -109 159
-109 181 0 9 22 10 83 6 45 -4 163 -10 261 -13z m2746 -70 c80 -20 208 -83
275 -136 357 -281 368 -828 23 -1132 -74 -66 -232 -142 -338 -162 -319 -63
-658 98 -797 378 -64 129 -78 189 -78 343 0 120 3 150 23 210 82 243 248 410
487 489 117 38 274 42 405 10z m-6545 -218 c37 -195 152 -506 294 -791 49 -99
88 -181 87 -181 0 -1 -15 1 -33 3 -85 13 -284 422 -412 848 -27 92 -33 100
-59 86 -46 -25 -92 -7 -92 35 0 25 17 34 64 34 18 0 54 3 80 6 l46 7 -5 36
c-12 76 14 4 30 -83z m7011 46 c13 -9 65 -88 86 -132 35 -73 57 -137 68 -200
14 -73 14 -237 1 -290 -9 -37 -9 -37 -16 160 -4 106 -46 227 -120 345 -51 83
-62 147 -19 117z m-2189 -351 c47 -47 82 -73 109 -81 l41 -12 2 -167 c1 -91 3
-212 4 -269 1 -65 -2 -105 -9 -110 -14 -9 -25 -52 -13 -52 5 0 9 -4 9 -10 0
-5 -7 -10 -16 -10 -11 0 -14 -6 -9 -20 8 -25 -3 -62 -16 -55 -5 4 -9 -2 -9
-13 0 -26 -11 -34 -27 -21 -11 10 -12 5 -9 -25 3 -20 -2 -52 -10 -72 -8 -20
-10 -33 -5 -29 6 3 11 13 11 22 0 33 12 3 15 -37 3 -34 1 -39 -10 -30 -18 15
-40 3 -26 -14 5 -6 8 -21 7 -31 -2 -11 1 -25 6 -32 6 -7 -1 -16 -23 -27 -36
-18 -48 -14 -30 8 9 11 9 16 0 22 -7 4 -9 3 -6 -3 4 -6 0 -14 -9 -17 -9 -3
-12 -2 -9 5 4 6 -3 7 -19 3 -20 -5 -25 -3 -21 7 6 19 -14 49 -22 32 -7 -18
-34 -16 -27 1 4 10 -1 14 -14 13 -19 -1 -19 -1 0 -28 11 -15 31 -32 45 -38 14
-7 23 -15 19 -18 -3 -4 -12 -1 -18 5 -7 7 -20 12 -30 12 -10 0 -21 7 -24 15
-3 8 -24 20 -46 26 -26 7 -42 17 -46 31 -3 15 -7 16 -13 6 -6 -10 -11 -9 -22
6 -14 19 -14 19 -14 -7 0 -16 4 -24 10 -20 6 4 7 1 2 -7 -11 -18 -28 6 -75
105 -76 159 -107 304 -94 438 8 85 23 124 67 163 17 16 25 20 17 9 -10 -13 -4
-11 18 8 19 15 38 27 44 27 6 0 8 3 5 7 -4 3 -3 11 3 17 5 7 13 30 18 52 8 36
6 43 -19 73 -22 27 -33 33 -55 28 -69 -13 -64 16 12 68 42 29 57 35 68 26 11
-9 12 -6 9 13 -4 20 1 28 28 42 40 20 82 32 125 33 27 1 43 -11 101 -68z
m-5492 -25 c22 -33 127 -282 150 -356 27 -87 186 -422 243 -510 36 -57 58
-127 26 -85 -40 52 -126 210 -239 435 -101 202 -131 273 -169 398 -25 84 -46
155 -46 159 0 9 5 3 35 -41z m5873 -27 c-27 -22 -38 -39 -38 -57 0 -15 -7 -65
-16 -112 -8 -47 -15 -141 -15 -210 0 -75 -8 -174 -19 -246 -22 -135 -30 -163
-54 -183 -20 -17 -19 -26 -21 264 -1 121 -6 248 -10 282 -4 35 -4 96 0 138 5
62 10 75 24 75 15 0 16 -7 9 -62 -4 -35 -10 -92 -13 -128 -4 -62 -4 -61 15 30
10 52 22 110 25 128 5 25 14 35 41 47 19 8 50 26 67 40 46 36 49 30 5 -6z
m3215 -51 c-3 -29 -14 -66 -24 -83 -10 -16 -27 -46 -38 -65 -34 -62 -159 -171
-244 -214 -68 -34 -81 -37 -103 -27 -15 6 -24 17 -21 24 3 8 35 60 72 117 59
91 66 108 58 130 -12 31 11 118 36 137 26 20 89 31 183 32 l87 1 -6 -52z
m-5471 15 l36 -5 -3 -592 c-2 -325 -6 -613 -10 -641 -3 -27 -18 -99 -31 -160
-14 -60 -27 -121 -30 -134 -9 -42 -16 -15 -25 96 -4 59 -18 155 -29 213 -21
102 -21 120 -13 605 4 275 8 531 8 568 l0 69 30 -7 c17 -4 46 -9 67 -12z
m1120 -46 c7 -8 18 -12 23 -10 6 2 20 -3 30 -11 17 -12 20 -26 20 -93 l0 -78
-40 0 c-28 0 -40 -4 -40 -14 0 -18 -102 -39 -192 -40 l-63 -1 -60 73 c-33 39
-60 74 -60 77 0 11 158 80 205 89 110 22 160 25 177 8z m5160 -29 c-94 -328
-192 -592 -317 -853 -43 -88 -105 -228 -140 -310 -83 -200 -165 -365 -181
-365 -24 0 -156 53 -146 59 5 3 15 17 22 30 11 22 38 59 146 201 74 97 224
359 317 550 126 261 216 466 233 530 15 61 67 200 72 195 2 -2 -1 -18 -6 -37z
m-10244 -57 c37 -19 124 -103 155 -152 19 -28 14 -59 -10 -59 -30 0 -233 176
-233 202 0 34 33 37 88 9z m10632 -193 c0 -17 -57 -125 -87 -165 -29 -40 -69
-44 -119 -12 -70 43 -33 106 92 159 74 32 114 38 114 18z m-6083 -33 c13 -19
8 -41 -15 -67 -27 -32 -153 -13 -160 24 -2 10 9 29 23 44 24 24 32 26 83 21
36 -4 61 -12 69 -22z m441 -1 c22 -6 22 -7 22 -205 0 -203 11 -295 38 -315 11
-8 13 -21 8 -55 -4 -24 -10 -81 -14 -126 l-7 -82 120 6 c111 5 122 4 145 -15
48 -39 21 -45 -262 -53 -145 -4 -349 -10 -455 -12 l-192 -4 47 43 c32 29 56
43 75 44 18 0 37 10 53 28 38 42 129 181 162 248 52 103 95 307 90 424 l-3 65
50 6 c75 9 98 9 123 3z m-2588 -224 c52 -23 112 -51 133 -63 37 -21 50 -47 22
-47 -8 0 -15 -4 -15 -10 0 -25 -114 7 -232 67 -66 32 -68 34 -68 72 0 39 0 39
33 31 17 -4 75 -26 127 -50z m-2895 -111 c50 -40 105 -119 105 -151 0 -39 -29
-87 -57 -94 -32 -8 -76 22 -107 74 -41 68 -44 104 -12 152 14 22 30 40 35 40
4 0 21 -10 36 -21z m8397 -136 c-3 -76 -10 -158 -16 -183 l-11 -45 -51 -3 -51
-3 -7 47 c-3 26 -6 88 -6 138 l1 91 67 47 c37 26 70 47 73 47 4 1 4 -61 1
-136z m2304 36 c33 -17 67 -38 77 -47 21 -19 19 -51 -5 -66 -21 -13 -107 26
-162 74 -30 26 -34 35 -26 51 15 27 49 24 116 -12z m-4862 -49 c6 0 30 -36 54
-80 23 -43 76 -124 117 -179 41 -55 71 -102 67 -105 -12 -7 -92 13 -125 32
-27 15 -72 90 -61 101 2 2 14 -5 27 -16 55 -50 57 -43 7 32 -44 66 -87 149
-98 186 -5 19 -13 43 -16 54 -5 15 -4 15 5 -2 7 -13 17 -23 23 -23z m-5174
-277 c50 -57 102 -128 240 -330 l69 -101 -37 -18 c-20 -9 -52 -18 -71 -18 -34
-1 -37 2 -71 69 -19 39 -49 90 -66 115 -61 88 -154 294 -154 341 0 29 28 11
90 -58z m5840 -12 c0 -6 21 -12 48 -16 97 -12 304 -137 314 -190 3 -13 2 -22
-3 -20 -4 3 -34 7 -66 10 -92 7 -253 99 -253 146 0 10 -5 19 -11 19 -6 0 -8 7
-5 17 4 10 4 14 0 11 -8 -9 -44 9 -44 22 0 6 5 10 10 10 6 0 10 -4 10 -9z
m-3995 -22 c88 -5 187 -14 220 -20 254 -43 365 -70 505 -121 167 -60 370 -167
370 -194 0 -11 -83 11 -210 58 -112 41 -143 48 -180 44 -26 -4 -64 0 -91 8
-89 27 -393 54 -404 35 -4 -5 -2 -16 5 -24 13 -16 -2 -54 -23 -56 -14 -1 3 -7
153 -53 199 -62 353 -103 410 -112 30 -4 48 -9 38 -11 -18 -4 -68 -75 -68 -96
0 -7 -5 -18 -12 -25 -9 -9 -9 -12 0 -12 7 0 12 -4 12 -9 0 -5 -51 6 -112 23
-62 18 -163 47 -224 65 -60 17 -189 59 -285 92 -96 33 -232 80 -304 103 -119
40 -216 78 -429 172 -43 19 -81 33 -83 31 -2 -2 23 -16 54 -30 32 -14 67 -33
78 -42 11 -9 15 -14 9 -11 -7 3 -14 -4 -17 -15 -4 -15 -2 -19 9 -15 8 3 14 -1
14 -9 0 -16 85 -74 135 -92 17 -6 55 -14 85 -17 37 -4 66 -14 95 -35 107 -77
592 -292 820 -364 271 -85 391 -119 615 -171 201 -47 603 -118 785 -140 375
-44 404 -46 709 -58 345 -13 613 -3 1006 38 264 27 286 30 600 85 262 46 360
68 360 80 0 5 -4 9 -10 9 -5 0 -19 19 -31 41 -17 34 -18 43 -7 50 26 17 52 8
101 -33 l50 -42 81 22 c45 12 169 45 276 72 193 50 324 90 450 136 36 13 133
48 215 78 173 63 356 136 435 176 30 15 88 40 129 55 41 16 100 43 132 60 31
18 69 37 85 42 16 5 29 16 29 24 0 16 -48 43 -53 29 -2 -5 -15 -7 -30 -4 -17
3 -58 -7 -107 -26 -157 -61 -411 -152 -490 -175 -44 -13 -150 -44 -235 -69
-178 -52 -321 -86 -353 -85 -21 1 -21 1 3 9 22 7 24 12 4 9 -3 0 -12 7 -19 17
-11 16 -11 39 2 74 4 8 5 20 4 27 -2 13 97 45 146 48 18 1 171 48 340 104 170
55 328 106 352 112 23 6 41 13 38 15 -3 3 -24 0 -48 -6 -24 -7 -66 -14 -94
-16 -27 -2 -102 -11 -165 -19 -447 -56 -537 -68 -635 -87 -60 -11 -168 -31
-240 -43 -71 -13 -138 -26 -147 -30 -10 -4 -18 -3 -18 2 0 16 255 128 475 208
260 95 853 152 1357 130 175 -7 178 -8 174 -29 -3 -11 -10 -79 -17 -149 -8
-83 -17 -133 -26 -142 -8 -8 -21 -62 -29 -122 -8 -60 -20 -144 -27 -188 -7
-51 -10 -215 -9 -455 2 -425 4 -409 -80 -470 -98 -71 -474 -234 -743 -323
-273 -89 -1170 -319 -1460 -373 -145 -27 -653 -99 -800 -114 -161 -15 -485
-30 -681 -30 -492 0 -1120 72 -1684 195 -177 38 -207 47 -147 42 20 -2 37 1
37 6 0 4 8 6 18 3 57 -18 292 -46 371 -45 l76 1 -50 13 c-29 8 -58 25 -70 39
-22 26 -53 37 -188 62 -78 14 -90 14 -105 1 -37 -33 -94 -41 -168 -23 -150 37
-252 70 -315 103 -38 19 -92 38 -125 43 -88 12 -274 88 -274 111 0 4 -26 6
-59 6 -36 -1 -65 4 -75 12 -9 7 -16 10 -16 5 0 -4 -12 4 -27 18 -16 14 -44 28
-63 32 -19 3 -68 23 -109 43 -68 34 -112 71 -173 146 -22 27 -29 29 -103 31
-69 1 -85 5 -120 29 -22 15 -44 27 -48 27 -21 0 -124 73 -147 104 -25 34 -116
103 -125 95 -2 -3 -7 -41 -10 -84 l-7 -80 79 -37 c43 -20 130 -65 193 -99 131
-71 248 -124 400 -181 102 -38 273 -118 267 -125 -6 -5 -294 92 -377 127 -41
17 -136 56 -210 86 -191 77 -326 151 -364 197 l-30 38 12 122 c20 197 16 633
-8 838 -27 239 -48 396 -60 444 -5 22 -10 44 -10 49 0 10 613 -1 845 -15z
m3330 -120 c143 -12 204 -34 227 -79 15 -31 39 -60 49 -60 4 0 9 10 11 23 3
21 4 21 9 -4 l6 -26 -331 -6 c-182 -4 -473 -10 -647 -13 l-316 -7 -7 45 c-4
25 -2 56 3 70 12 32 34 35 421 48 162 6 304 12 315 14 44 7 136 6 260 -5z
m469 -33 c24 -15 51 -80 40 -98 -3 -4 -34 -8 -69 -8 l-64 0 -19 43 c-24 54
-40 66 -99 77 -37 7 -21 8 69 6 87 -2 124 -8 142 -20z m-4765 -294 c17 -32 32
-145 20 -153 -6 -3 -76 -9 -155 -11 -79 -3 -147 -8 -151 -11 -3 -4 2 -18 12
-33 12 -19 19 -55 22 -128 6 -111 -2 -150 -74 -371 -47 -143 -168 -405 -188
-405 -2 0 -38 42 -81 93 -42 50 -83 99 -91 108 -13 15 -9 28 33 110 25 51 53
104 62 117 8 12 34 66 58 119 49 108 48 117 -19 128 -49 8 -261 108 -294 138
-13 11 -23 26 -23 33 0 18 37 52 80 74 49 25 201 78 290 101 41 11 116 32 165
46 116 34 240 61 287 62 27 1 40 -4 47 -17z m8108 -13 c266 -51 668 -204 668
-254 0 -21 -56 -62 -187 -138 -85 -48 -147 -92 -115 -81 13 5 17 0 17 -22 0
-51 52 -214 100 -311 l47 -95 -37 -47 c-21 -25 -53 -64 -72 -86 l-35 -39 -24
36 c-13 19 -56 80 -95 134 -111 154 -204 313 -204 349 0 21 25 13 99 -31 l56
-34 5 37 c5 36 3 39 -28 49 -32 12 -105 64 -174 126 l-37 33 19 73 c19 77 41
112 70 112 21 0 33 49 18 68 -14 16 -91 38 -198 57 -47 8 -86 15 -87 15 -2 0
-3 16 -3 35 0 35 0 35 44 35 25 0 94 -9 153 -21z m-3939 -15 c142 -6 142 -6
142 -30 l0 -24 -422 -1 c-515 0 -748 -10 -801 -33 -42 -18 -57 -46 -57 -104 0
-20 -5 -55 -11 -76 -18 -67 -33 -19 -25 83 8 118 21 158 57 180 27 17 61 18
502 14 259 -2 536 -6 615 -9z m806 -8 c27 -21 31 -32 37 -97 4 -41 7 -101 7
-134 -1 -59 -1 -59 -9 20 -11 101 -25 134 -63 150 -21 9 -124 15 -328 20 -219
6 -295 11 -292 19 3 9 46 11 152 9 114 -3 169 1 247 15 146 28 213 28 249 -2z
m2904 -58 c17 -17 15 -79 -4 -106 -36 -52 -123 -3 -110 63 4 16 14 36 23 43
21 15 75 16 91 0z m-8176 -1149 c21 -11 42 -19 49 -19 6 0 80 -27 163 -60 83
-32 164 -64 180 -70 26 -10 28 -12 14 -26 -12 -13 -39 -14 -170 -8 l-156 7
-103 103 -102 103 44 -6 c24 -3 61 -14 81 -24z m8553 -88 l-90 -89 -178 -4
c-176 -5 -178 -5 -175 16 2 15 15 25 48 34 167 49 184 56 193 87 6 17 15 33
21 37 6 4 69 8 141 8 l130 0 -90 -89z m-8158 -286 c113 -27 274 -81 358 -121
28 -14 41 -22 31 -19 -11 3 -98 24 -195 46 -97 23 -195 45 -217 50 -23 6 -54
23 -69 40 -16 16 -26 29 -22 29 4 0 55 -11 114 -25z m1125 -25 c46 -17 137
-62 203 -99 249 -143 442 -230 718 -326 l167 -59 -37 -18 c-21 -9 -31 -18 -23
-18 8 -1 10 -4 4 -6 -15 -6 -277 85 -463 162 -152 63 -522 242 -628 304 -40
23 -53 36 -53 54 0 44 5 45 112 6z m6708 5 c-27 -29 -70 -43 -241 -79 -68 -15
-153 -33 -188 -42 -35 -8 -65 -13 -67 -11 -9 9 461 154 505 156 10 1 7 -7 -9
-24z m-1166 -4 c8 -12 -18 -32 -124 -94 -217 -126 -868 -423 -887 -404 -2 3
17 13 44 23 69 25 81 42 26 35 -8 -1 -10 5 -6 15 5 14 2 16 -16 11 -17 -4 -20
-3 -11 8 6 7 27 16 47 20 19 3 64 20 100 36 35 16 70 29 78 29 18 0 20 17 4
22 -8 3 -6 10 5 21 19 19 66 23 82 7 6 -6 32 1 74 22 36 17 73 35 82 40 10 4
23 8 31 8 7 0 29 11 49 25 20 14 48 25 61 25 14 0 31 7 38 16 11 14 213 116
269 137 23 9 48 8 54 -2z m-4320 -839 c45 -66 30 -174 -44 -321 -45 -90 -29
-86 -167 -45 -45 13 -84 28 -87 32 -6 10 49 106 143 246 93 141 111 151 155
88z"/>
<path d="M10773 8405 c3 -22 28 -101 56 -175 28 -74 72 -191 97 -260 55 -149
63 -161 93 -131 12 12 25 21 29 21 5 0 16 6 25 13 17 12 17 16 -4 82 -11 39
-25 75 -31 82 -5 7 -22 45 -37 85 -34 92 -103 197 -176 268 l-57 55 5 -40z"/>
<path d="M11080 7823 c-21 -10 -24 -18 -22 -50 3 -37 29 -113 43 -123 11 -8 5
-94 -6 -102 -6 -4 -15 9 -21 30 -10 31 -12 33 -13 12 -1 -27 25 -73 37 -66 4
2 18 -1 31 -8 26 -14 70 -10 72 8 2 22 -3 60 -12 84 -8 21 -10 22 -25 8 -22
-22 -31 -20 -36 9 -6 28 -1 35 22 35 15 0 16 6 8 53 -5 28 -17 63 -26 77 -9
14 -19 30 -22 36 -3 7 -13 6 -30 -3z"/>
<path d="M5905 10704 c-217 -19 -493 -66 -735 -125 -209 -52 -620 -204 -620
-230 0 -4 5 -11 10 -14 19 -12 10 -42 -15 -53 -14 -7 -45 -15 -68 -18 -45 -7
-68 -16 -89 -36 -54 -52 -94 -72 -145 -74 -41 -2 -60 -8 -85 -30 -20 -17 -25
-24 -13 -20 11 5 47 10 80 12 38 2 80 13 113 29 78 38 251 115 258 115 3 0 58
23 122 51 237 103 587 218 773 254 349 66 787 92 1088 64 l118 -10 48 30 c27
17 56 31 64 31 8 0 11 3 8 7 -4 3 -73 12 -154 19 -187 17 -550 15 -758 -2z"/>
<path d="M6990 10647 c0 -1 4 -17 9 -35 11 -36 6 -38 -46 -23 -18 5 -35 6 -38
1 -6 -10 19 -20 53 -20 29 -1 280 -65 477 -122 118 -35 120 -35 141 -17 40 37
84 21 84 -31 0 -12 17 -24 58 -40 89 -35 540 -264 644 -326 51 -32 131 -85
178 -119 47 -34 104 -73 126 -87 57 -36 294 -228 399 -323 150 -135 347 -343
440 -465 49 -63 107 -136 129 -161 23 -25 73 -94 111 -152 39 -59 74 -106 79
-104 5 2 27 -32 49 -76 32 -65 43 -78 59 -74 15 4 17 3 8 -8 -8 -10 -5 -26 15
-64 14 -28 28 -51 31 -51 4 0 17 10 29 22 18 18 21 26 13 41 -5 10 -7 21 -4
24 2 3 -14 40 -36 82 -97 178 -298 448 -459 616 -32 33 -76 85 -98 115 -23 30
-83 90 -134 132 -120 102 -127 109 -127 127 0 50 -337 322 -622 504 -113 72
-129 78 -195 78 -46 0 -47 1 -57 42 -5 22 -2 29 15 35 18 7 12 12 -42 36 -35
15 -81 36 -102 48 -21 11 -41 17 -44 14 -4 -3 -16 2 -27 13 -12 10 -69 38
-128 60 -58 23 -118 51 -133 63 -14 11 -41 24 -58 28 -18 5 -79 27 -137 50
-109 42 -291 92 -515 141 -132 29 -145 31 -145 26z"/>
<path d="M3985 10017 c-96 -52 -321 -209 -435 -304 -138 -115 -404 -381 -511
-513 -104 -128 -274 -360 -361 -495 -67 -103 -138 -233 -229 -415 -28 -58 -68
-130 -88 -160 -54 -82 -201 -473 -201 -537 0 -17 49 5 95 42 27 23 41 48 61
110 74 223 226 566 334 754 74 129 248 374 409 576 196 246 558 586 801 753
200 137 284 198 284 207 1 6 -21 11 -49 13 -40 2 -61 -4 -110 -31z"/>
<path d="M10152 8265 c-15 -17 -68 -20 -77 -5 -6 10 -45 14 -45 4 0 -3 26 -60
59 -127 73 -153 112 -243 142 -332 18 -51 25 -63 27 -45 2 15 23 42 49 66 l46
40 -68 160 c-63 148 -112 255 -118 254 -1 -1 -8 -7 -15 -15z"/>
<path d="M5770 9785 c-270 -24 -254 -20 -329 -85 -104 -90 -102 -87 -92 -156
5 -32 17 -142 27 -242 l18 -184 89 -44 88 -45 142 15 c78 8 180 18 226 21 84
7 85 7 163 66 l78 60 0 248 0 249 -90 56 c-103 64 -91 62 -320 41z m112 -356
c7 -209 10 -204 -103 -214 -101 -9 -105 -5 -113 127 -3 57 -9 135 -12 175 -7
85 -3 89 108 102 115 12 112 17 120 -190z"/>
<path d="M6392 9744 l-83 -54 3 -73 3 -72 148 -3 147 -3 0 34 c0 45 15 57 75
57 64 0 99 -18 103 -52 3 -24 -7 -32 -95 -84 -54 -31 -162 -99 -241 -151
l-143 -93 3 -87 3 -88 190 -7 c169 -6 435 -29 507 -44 14 -3 28 -2 31 3 2 4 8
47 12 94 l7 86 -29 6 c-15 3 -85 12 -155 19 -71 7 -128 16 -128 20 0 7 133 84
235 136 99 49 102 54 109 157 l5 90 -66 55 c-37 30 -75 61 -85 68 -20 14 -292
42 -403 41 -68 0 -73 -2 -153 -55z"/>
<path d="M7319 9655 l-94 -43 -6 -53 c-3 -30 -3 -57 0 -61 4 -5 56 -17 116
-29 190 -35 175 -34 175 -11 0 36 31 44 107 26 90 -20 113 -36 113 -77 0 -61
-19 -69 -108 -48 -30 8 -57 10 -62 5 -11 -12 -28 -144 -20 -149 4 -3 34 -11
66 -20 60 -15 89 -38 79 -63 -3 -8 -5 -22 -5 -32 0 -28 -27 -32 -107 -14 -78
17 -103 33 -103 65 0 11 -9 20 -22 23 -115 24 -180 36 -219 41 l-46 7 -6 -49
-6 -48 76 -77 c58 -58 84 -78 112 -83 20 -3 120 -27 223 -52 l188 -46 89 32
88 33 21 106 c19 100 19 108 4 126 -13 14 -14 20 -4 23 28 10 39 35 56 128 20
112 24 102 -76 206 l-63 67 -200 46 c-110 26 -216 51 -236 55 -30 7 -50 2
-130 -34z"/>
<path d="M4895 9641 c-60 -15 -153 -40 -206 -55 -95 -28 -98 -29 -155 -95 -95
-107 -89 -92 -74 -171 7 -39 16 -70 19 -70 3 0 67 20 141 44 l135 43 1 34 c1
52 13 66 75 83 62 18 87 14 99 -18 6 -17 -9 -38 -90 -126 -150 -163 -300 -341
-300 -357 0 -27 32 -153 38 -153 4 0 36 9 72 20 194 60 435 123 578 151 l63
12 -6 66 c-8 85 -15 121 -23 121 -9 0 -172 -35 -250 -53 l-62 -15 57 65 c32
36 98 103 146 149 l89 84 -11 92 c-6 50 -14 95 -18 99 -14 14 -174 79 -191 78
-10 0 -66 -13 -127 -28z"/>
<path d="M7629 6097 c12 -15 12 -19 -5 -32 -23 -17 -39 -14 -38 9 1 9 0 16 -2
16 -6 0 -33 -57 -29 -62 2 -2 5 -21 7 -41 1 -21 7 -36 13 -33 16 5 45 -13 45
-29 0 -16 -87 -84 -107 -85 -9 0 -13 -18 -13 -57 0 -32 4 -53 8 -47 10 15 42
25 42 14 0 -6 5 -10 10 -10 6 0 10 9 10 20 0 11 5 20 11 20 5 0 7 -4 4 -10
-10 -16 1 -11 16 7 10 11 10 14 2 9 -29 -17 -11 32 23 65 48 47 74 109 71 169
-2 27 -8 55 -15 63 -6 7 -9 17 -5 20 3 4 1 7 -4 7 -6 0 -13 -6 -16 -12 -3 -10
-8 -9 -23 2 -18 14 -18 14 -5 -3z"/>
<path d="M2770 3341 l-45 -39 -11 -109 -11 -108 37 -85 37 -85 78 -42 c43 -22
82 -48 87 -57 13 -22 -2 -96 -19 -96 -24 0 -72 29 -83 50 -6 11 -8 35 -5 53 7
33 5 34 -63 70 -39 21 -72 37 -75 37 -3 0 -8 -32 -12 -70 -7 -69 -6 -73 33
-154 l40 -83 110 -57 c61 -31 115 -56 120 -56 5 0 29 18 54 40 l45 39 7 109 7
108 -38 79 c-37 78 -40 81 -108 117 -92 47 -95 51 -95 104 0 53 14 63 62 38
43 -22 48 -30 48 -81 0 -43 0 -43 69 -77 69 -35 69 -35 75 -13 16 60 6 135
-28 210 l-35 75 -114 61 c-63 34 -116 61 -118 61 -2 0 -24 -18 -49 -39z"/>
<path d="M9680 3312 c-30 -15 -104 -50 -165 -77 -60 -27 -115 -54 -122 -59 -8
-8 -10 -36 -6 -93 5 -72 8 -83 24 -83 13 0 19 -7 19 -22 0 -13 5 -108 12 -212
10 -172 10 -189 -5 -198 -13 -7 -17 -23 -16 -76 2 -120 -3 -118 127 -60 l112
51 0 76 c0 82 -8 105 -32 96 -12 -5 -16 6 -22 51 -3 31 -5 58 -4 60 2 1 41 21
87 43 84 41 84 41 128 121 47 86 51 120 36 270 -6 63 -7 66 -54 103 -27 20
-52 37 -56 36 -5 0 -33 -12 -63 -27z"/>
<path d="M9205 3100 c-130 -56 -120 -44 -117 -144 3 -78 5 -86 21 -81 20 6 24
-22 37 -280 6 -119 5 -131 -12 -146 -25 -21 -86 -41 -95 -32 -4 5 -12 98 -17
208 -9 175 -8 202 5 217 12 14 14 32 8 97 -4 45 -10 81 -14 81 -3 0 -52 -16
-108 -37 l-103 -38 0 -83 c0 -75 2 -84 20 -89 11 -3 20 -12 20 -21 0 -8 5
-114 11 -236 l11 -221 37 -38 c57 -60 57 -60 172 -16 57 22 115 45 129 50 17
6 38 34 67 92 l43 83 -14 239 c-13 224 -13 240 4 254 14 14 16 29 12 99 -3 53
-8 82 -16 81 -6 0 -51 -18 -101 -39z"/>
<path d="M3366 3102 c-3 -5 -6 -43 -7 -85 -2 -65 1 -80 16 -91 17 -12 18 -22
4 -207 -13 -187 -15 -194 -36 -197 -31 -5 -45 29 -41 95 l3 55 -68 31 c-37 16
-70 27 -73 24 -4 -3 -9 -44 -11 -90 -5 -80 -4 -89 27 -155 18 -39 40 -78 49
-86 9 -7 56 -31 104 -51 l89 -38 44 44 45 45 14 199 c8 110 15 212 15 228 0
20 5 27 19 27 17 0 20 9 23 78 2 44 -1 82 -7 89 -5 6 -37 22 -70 36 -33 14
-77 32 -97 41 -20 9 -39 12 -42 8z"/>
<path d="M3689 2915 c-51 -49 -59 -78 -59 -218 0 -57 5 -78 34 -135 34 -68 35
-68 108 -97 40 -15 79 -32 86 -38 14 -11 16 -93 2 -102 -15 -9 -68 4 -85 22
-9 8 -15 33 -15 57 l0 43 -67 25 c-38 14 -71 23 -75 21 -5 -2 -8 -36 -8 -75 0
-63 4 -81 37 -145 l38 -72 94 -36 c140 -54 139 -54 190 -1 l44 45 5 107 5 107
-38 77 -37 77 -82 29 -81 29 -3 49 c-4 58 6 70 47 61 45 -10 61 -30 61 -79 l0
-42 65 -23 c36 -13 69 -20 73 -17 3 4 8 38 10 75 4 65 2 73 -36 142 l-40 74
-114 42 c-62 24 -113 43 -113 43 0 0 -21 -20 -46 -45z"/>
<path d="M8505 2841 l-110 -36 -43 -75 -43 -75 6 -265 7 -265 52 -53 53 -54
119 37 c65 21 124 43 131 49 7 6 30 43 51 83 40 71 40 72 35 157 -3 47 -7 86
-8 86 -3 0 -101 -32 -127 -42 -26 -10 -28 -15 -28 -62 0 -29 -6 -59 -12 -68
-18 -22 -78 -40 -93 -28 -13 11 -31 373 -20 403 8 19 76 43 99 34 11 -5 16
-20 16 -53 0 -33 4 -45 13 -42 6 3 43 15 81 28 l68 22 -5 85 c-5 84 -5 85 -48
129 -25 25 -52 44 -64 43 -11 0 -69 -17 -130 -38z"/>
<path d="M4105 2739 c-6 -72 -5 -83 10 -92 16 -8 17 -22 11 -136 -12 -225 -18
-281 -31 -281 -15 0 -25 -45 -25 -114 l0 -52 58 -19 c151 -48 325 -94 333 -89
5 3 9 51 9 108 l0 103 -51 11 c-66 16 -69 15 -69 -7 0 -18 -3 -19 -42 -7 l-43
12 2 115 c4 201 13 299 28 299 15 0 29 83 23 139 -3 33 -4 34 -98 62 -52 16
-98 29 -101 29 -4 0 -10 -37 -14 -81z"/>
<path d="M7715 2634 c-60 -13 -136 -29 -167 -35 l-58 -12 0 -87 c0 -79 2 -88
20 -93 19 -5 20 -14 20 -211 0 -174 -2 -208 -15 -212 -20 -8 -22 -174 -2 -174
6 0 48 7 92 15 139 26 125 13 125 110 0 79 -1 85 -20 85 -19 0 -21 5 -18 67
l3 67 35 7 c20 5 39 3 45 -2 6 -6 12 -74 15 -152 4 -118 7 -142 20 -140 8 1
50 9 93 18 l78 17 -3 87 c-3 75 -5 86 -20 83 -16 -3 -18 7 -18 84 0 75 -3 91
-21 110 -20 21 -20 24 -5 46 12 17 16 47 16 131 l0 108 -47 55 c-27 29 -50 53
-53 53 -3 -1 -54 -12 -115 -25z"/>
<path d="M4760 2556 c0 -74 2 -85 19 -91 16 -5 23 -28 41 -128 13 -67 30 -162
40 -212 9 -49 14 -95 9 -100 -4 -6 -9 -46 -10 -90 l-2 -80 109 -22 c172 -34
161 -37 166 55 3 42 1 82 -3 88 -7 9 30 169 37 161 2 -2 10 -36 19 -76 12 -59
13 -86 4 -136 -6 -34 -9 -77 -7 -96 l3 -34 75 -11 c41 -7 102 -15 136 -19 l61
-6 6 78 c3 42 2 82 -3 88 -6 7 7 69 31 160 69 259 68 255 88 255 16 0 19 10
23 78 3 42 1 81 -3 86 -10 11 -185 30 -206 22 -13 -5 -15 -21 -10 -104 4 -83
1 -111 -22 -194 -14 -54 -28 -98 -31 -98 -11 0 -49 235 -40 244 6 6 10 47 10
92 l0 81 -107 17 c-60 9 -114 16 -120 16 -15 0 -19 -160 -4 -175 10 -11 -48
-230 -57 -220 -13 13 -50 230 -41 240 5 5 9 46 9 92 0 78 -1 83 -22 87 -13 3
-53 12 -89 20 -113 27 -109 29 -109 -68z"/>
<path d="M7405 2574 c-9 -3 -199 -30 -342 -50 l-43 -5 0 -90 c0 -71 3 -89 15
-89 12 0 15 -33 17 -202 3 -185 1 -204 -15 -218 -15 -13 -17 -29 -15 -95 l3
-79 45 3 c25 2 117 13 205 24 l160 22 3 89 c2 49 1 95 -2 101 -6 16 -126 -3
-126 -20 0 -11 -49 -25 -87 -25 -9 0 -13 19 -13 60 0 47 3 60 15 60 8 0 15 -7
15 -15 0 -13 9 -15 53 -9 28 4 56 10 60 14 4 3 6 60 5 126 -3 99 -6 119 -18
117 -95 -10 -110 -15 -110 -34 0 -10 -4 -19 -10 -19 -6 0 -10 28 -10 64 l0 64
43 4 c25 3 45 0 49 -7 5 -9 23 -9 68 -2 l60 10 0 98 c0 95 -4 110 -25 103z"/>
<path d="M9955 2528 c-17 -5 -59 -23 -94 -41 l-65 -32 0 -45 c-1 -43 -3 -45
-30 -45 -20 -1 -32 -8 -42 -28 -8 -15 -13 -27 -11 -27 2 0 37 15 78 34 41 18
102 44 136 56 34 12 62 25 61 29 0 3 0 13 2 21 1 11 4 9 10 -5 l9 -20 0 20 c0
11 -5 36 -12 56 -11 33 -14 35 -42 27z"/>
<path d="M6750 2498 c-58 -5 -138 -11 -177 -14 l-73 -6 0 -104 c0 -75 4 -106
13 -109 25 -9 112 10 112 25 0 8 8 16 18 18 16 3 17 -12 17 -206 0 -203 -1
-210 -20 -215 -19 -5 -21 -12 -18 -89 l3 -83 100 4 c55 1 103 5 108 8 4 2 7
42 7 89 0 68 -3 84 -15 84 -13 0 -15 30 -15 210 0 172 2 210 14 210 7 0 16 -9
19 -19 4 -16 12 -18 53 -14 78 7 74 1 74 118 l0 105 -57 -2 c-32 0 -105 -5
-163 -10z"/>
<path d="M5656 2454 c-10 -77 -7 -111 12 -125 15 -13 17 -33 14 -215 -3 -191
-4 -202 -22 -207 -18 -5 -20 -14 -20 -86 l0 -80 33 -5 c17 -3 66 -7 107 -8
l75 -3 3 83 c2 68 0 82 -13 82 -13 0 -15 28 -15 211 0 202 1 211 20 216 18 5
20 14 20 88 l0 82 -61 7 c-34 3 -81 6 -104 6 l-42 0 -7 -46z"/>
<path d="M5930 2401 c0 -74 3 -91 15 -91 13 0 15 -25 15 -164 0 -191 -7 -256
-27 -256 -11 0 -13 -18 -11 -87 l3 -88 108 -3 107 -3 0 86 c0 69 -3 85 -15 85
-12 0 -15 15 -14 78 0 88 -5 95 77 -103 l58 -140 89 -3 c60 -2 91 1 96 9 4 6
7 43 8 81 1 62 -1 70 -19 75 -20 5 -21 12 -19 210 1 188 3 204 20 214 16 8 19
22 19 95 l0 85 -107 -3 -108 -3 -3 -80 c-2 -64 0 -82 13 -91 13 -9 15 -28 13
-90 l-3 -79 -69 173 c-65 164 -70 172 -96 172 -15 0 -55 3 -89 6 l-61 7 0 -92z"/>
<path d="M1924 2932 c-12 -9 -28 -30 -36 -45 -8 -15 -36 -45 -63 -65 -64 -49
-108 -122 -110 -184 -1 -26 2 -45 7 -42 4 3 8 10 8 15 0 16 88 148 116 174 25
24 25 24 45 4 14 -14 18 -27 14 -42 -7 -22 -7 -22 7 -2 17 24 48 128 51 169 2
35 -11 41 -39 18z"/>
</g>
</svg>
